<svg width="48" height="48" viewBox="0 0 48 48" fill="none" xmlns="http://www.w3.org/2000/svg">
<path d="M40.3141 13.2032C38.2337 12.3316 36.1517 12 34.0708 12C27.4649 11.9995 20.8596 15.3396 14.2537 15.3396C12.597 15.3396 10.9414 15.1296 9.28472 14.6046C9.09862 14.5457 8.91198 14.5179 8.72963 14.5179C7.80663 14.5179 7 15.2314 7 16.222V33.218C7 33.8946 7.38776 34.5359 8.01043 34.7963C10.0908 35.6684 12.1728 36 14.2537 36C20.8596 36 27.4655 32.6598 34.0713 32.6598C35.728 32.6598 37.3836 32.8698 39.0403 33.3948C39.2264 33.4538 39.4131 33.4816 39.5954 33.4816C40.5184 33.4816 41.325 32.768 41.325 31.7775V14.782C41.3245 14.1048 40.9367 13.4641 40.3141 13.2032ZM24.1623 29.1429C21.7923 29.1429 19.8717 26.8398 19.8717 24C19.8717 21.1596 21.7928 18.8571 24.1623 18.8571C26.5317 18.8571 28.4528 21.1596 28.4528 24C28.4528 26.8409 26.5312 29.1429 24.1623 29.1429Z" fill="#1EC28B"/>
</svg>
