<svg width="377" height="268" viewBox="0 0 377 268" fill="none" xmlns="http://www.w3.org/2000/svg">
<path d="M331.97 157.884C332.001 150.141 330.286 142.491 326.952 135.495C323.634 128.574 318.817 122.611 312.909 118.111C313.072 116.43 313.156 114.742 313.159 113.048C313.159 86.3012 293.276 64.6267 268.763 64.6267C261.214 64.6186 253.79 66.7131 247.22 70.7076C229.86 58.4238 207.203 50.9868 182.417 50.9868C142.101 50.9868 107.398 70.6674 92.0082 98.8905C91.1519 98.8355 90.2929 98.806 89.4244 98.806C64.91 98.806 45.03 120.489 45.03 147.235C45.0125 156.683 47.5505 165.931 52.333 173.855C52.333 197.919 73.4504 217.428 99.4876 217.428H288.392C308.844 217.428 325.418 202.109 325.418 183.214C329.72 175.576 331.986 166.814 331.97 157.884Z" fill="#EAF9F2"/>
<path fill-rule="evenodd" clip-rule="evenodd" d="M188.5 91.2393C157.788 91.2393 132.862 116.047 132.862 146.613C132.862 177.18 157.788 201.986 188.5 201.986C219.212 201.986 244.139 177.179 244.139 146.613C244.139 116.048 219.213 91.2393 188.5 91.2393ZM188.5 190.912C163.963 190.912 143.988 171.032 143.988 146.613C143.988 122.195 163.963 102.314 188.5 102.314C213.037 102.314 233.012 122.193 233.012 146.613C233.012 171.034 213.037 190.912 188.5 190.912ZM177.372 158.629L210.09 126.067C211.141 125.03 212.561 124.447 214.041 124.447C215.521 124.447 216.942 125.03 217.992 126.067C218.508 126.579 218.917 127.188 219.196 127.858C219.475 128.528 219.619 129.246 219.619 129.971C219.619 130.696 219.475 131.414 219.196 132.084C218.917 132.753 218.508 133.362 217.992 133.874L181.322 170.368C180.808 170.881 180.196 171.289 179.523 171.566C178.85 171.844 178.129 171.988 177.4 171.988C176.671 171.988 175.95 171.844 175.277 171.566C174.604 171.289 173.993 170.881 173.478 170.368L159.071 156.03C158.031 154.994 157.446 153.59 157.446 152.126C157.446 150.661 158.031 149.257 159.071 148.221C160.112 147.186 161.523 146.604 162.994 146.604C164.465 146.604 165.876 147.186 166.917 148.221L177.372 158.629Z" fill="#D7F4E6"/>
<path d="M266.565 194.309L270.326 195.544C270.326 195.544 276.291 193.621 276.878 192.411C277.465 191.201 277.632 188.265 278.48 188.186C279.329 188.107 280.969 188.38 281.359 190.389C281.643 191.847 279.497 196.062 279.832 196.511C280.042 196.791 282.184 197.563 283.758 198.102C284.268 198.278 284.719 198.591 285.061 199.006C285.404 199.422 285.624 199.923 285.699 200.455C285.751 200.813 285.679 201.179 285.496 201.492C285.313 201.806 285.029 202.048 284.69 202.181L283.613 202.596L283.959 203.708C284.082 204.107 284.044 204.538 283.854 204.91C283.663 205.282 283.335 205.565 282.938 205.701L282.101 205.979L282.37 206.658C282.451 206.864 282.488 207.085 282.479 207.307C282.469 207.529 282.414 207.746 282.316 207.945C282.219 208.145 282.08 208.322 281.911 208.465C281.741 208.609 281.543 208.716 281.329 208.78L280.597 208.992L280.628 209.186C280.688 209.576 280.601 209.975 280.385 210.306C280.168 210.637 279.837 210.877 279.454 210.98L278.728 211.171L268.708 207.88C267.769 207.57 266.904 207.071 266.169 206.412L262.842 204.67C262.668 204.577 262.533 204.425 262.462 204.241C262.391 204.058 262.388 203.855 262.454 203.669L265.539 194.825C265.608 194.623 265.755 194.456 265.946 194.36C266.138 194.264 266.36 194.245 266.565 194.309Z" fill="#1EC28B"/>
<path d="M270.632 134.58L271.429 130.651L275.133 129.077C275.228 129.036 275.31 128.97 275.369 128.886C275.428 128.802 275.463 128.703 275.468 128.6C275.474 128.498 275.45 128.396 275.401 128.305C275.351 128.215 275.277 128.141 275.187 128.091L271.678 126.122L271.319 122.13C271.309 122.028 271.271 121.93 271.209 121.848C271.147 121.767 271.063 121.704 270.967 121.667C270.87 121.63 270.766 121.62 270.664 121.639C270.563 121.658 270.469 121.705 270.392 121.774L267.43 124.487L263.496 123.593C263.395 123.571 263.29 123.576 263.193 123.61C263.095 123.643 263.009 123.703 262.944 123.783C262.878 123.863 262.837 123.959 262.824 124.061C262.811 124.163 262.827 124.267 262.87 124.36L264.546 128.005L262.48 131.445C262.426 131.533 262.399 131.634 262.4 131.737C262.402 131.84 262.433 131.94 262.489 132.027C262.545 132.113 262.624 132.183 262.718 132.226C262.811 132.27 262.915 132.287 263.018 132.275L267.018 131.814L269.668 134.833C269.735 134.913 269.824 134.971 269.924 135.003C270.023 135.034 270.13 135.036 270.231 135.01C270.331 134.983 270.423 134.929 270.494 134.853C270.565 134.777 270.613 134.682 270.632 134.58Z" fill="#F7CC7F"/>
<path d="M156.478 61.9707L157.275 58.0419L160.978 56.4674C161.074 56.4277 161.157 56.3617 161.218 56.2771C161.278 56.1924 161.313 56.0925 161.319 55.9889C161.325 55.8852 161.301 55.782 161.25 55.6913C161.2 55.6005 161.124 55.5258 161.033 55.4758L157.524 53.5086L157.165 49.5154C157.155 49.4132 157.117 49.3156 157.055 49.2337C156.993 49.1518 156.909 49.0888 156.812 49.0518C156.716 49.0148 156.611 49.0052 156.51 49.0241C156.409 49.0431 156.314 49.0898 156.238 49.159L153.276 51.8725L149.35 50.9801C149.249 50.9571 149.144 50.9625 149.047 50.9959C148.949 51.0292 148.863 51.089 148.797 51.1686C148.732 51.2482 148.69 51.3444 148.677 51.4463C148.664 51.5482 148.68 51.6517 148.723 51.7452L150.396 55.3954L148.329 58.8365C148.276 58.9247 148.249 59.0259 148.251 59.1286C148.253 59.2313 148.284 59.3315 148.34 59.4177C148.396 59.504 148.475 59.573 148.568 59.6169C148.662 59.6607 148.765 59.6777 148.868 59.6659L152.868 59.205L155.513 62.2253C155.58 62.304 155.669 62.3621 155.769 62.3929C155.868 62.4236 155.975 62.4259 156.075 62.3993C156.176 62.3727 156.267 62.3184 156.339 62.2426C156.41 62.1668 156.458 62.0726 156.478 61.9707Z" fill="#F7CC7F"/>
<path d="M208.47 177.09V175.028C200.342 172.08 193.91 161.21 192.022 147.329C200.446 146.292 208.161 141.316 214.42 133.578C214.284 134.313 214.219 135.059 214.224 135.806C214.242 139.011 216.008 141.744 218.947 143.113C220.144 143.672 221.451 143.962 222.773 143.963C224.752 143.974 226.672 143.3 228.206 142.057C231.619 139.258 231.99 135.759 230.592 133.749C229.409 132.05 227.257 131.621 225.358 132.708C224.918 132.96 224.571 133.347 224.369 133.811C224.167 134.275 224.122 134.792 224.239 135.284C224.356 135.776 224.629 136.217 225.018 136.542C225.408 136.867 225.892 137.058 226.399 137.087C226.088 137.603 225.683 138.058 225.205 138.427C224.083 139.346 222.377 139.517 220.948 138.853C220.203 138.506 218.954 137.647 218.943 135.771C218.928 133.123 220.338 130.768 223.386 128.36C226.317 126.039 230.276 124.109 233.768 122.405C236.104 121.266 238.311 120.19 240.056 119.083C242.509 117.527 244.668 114.89 246.134 111.655C247.564 108.502 248.221 105.054 247.984 101.947C247.624 97.2235 245.291 93.6819 241.401 91.9747C237.272 90.1604 232.919 91.4749 229.409 95.574C229.961 91.3271 230.243 87.0498 230.254 82.7676H147.204C147.214 87.2722 147.527 91.7712 148.138 96.2346C148.014 96.0751 147.888 95.9183 147.761 95.7642C144.228 91.5138 139.798 90.1362 135.606 91.9747C131.721 93.6819 129.382 97.2235 129.023 101.947C128.786 105.054 129.443 108.502 130.873 111.655C132.339 114.89 134.497 117.527 136.951 119.083C138.701 120.19 140.902 121.266 143.238 122.405C146.731 124.109 150.69 126.039 153.621 128.36C156.662 130.772 158.072 133.123 158.064 135.771C158.053 137.647 156.804 138.505 156.059 138.853C154.633 139.523 152.923 139.346 151.802 138.427C151.324 138.057 150.919 137.603 150.607 137.087C151.115 137.058 151.599 136.867 151.988 136.542C152.378 136.217 152.651 135.776 152.768 135.284C152.885 134.792 152.839 134.275 152.637 133.811C152.436 133.347 152.089 132.96 151.648 132.708C149.75 131.621 147.598 132.05 146.415 133.749C145.017 135.759 145.387 139.258 148.802 142.057C150.335 143.301 152.256 143.974 154.233 143.963C155.556 143.962 156.862 143.672 158.06 143.113C160.999 141.744 162.764 139.011 162.783 135.806C162.791 134.791 162.667 133.779 162.414 132.795C168.782 140.981 176.731 146.257 185.438 147.329C183.553 161.21 177.117 172.08 168.989 175.028V177.09H208.47ZM156.559 124.696C153.226 122.058 149.019 120.006 145.315 118.2C143.101 117.12 141.006 116.099 139.486 115.134C135.943 112.887 133.36 107.135 133.727 102.313C133.885 100.251 134.67 97.5304 137.512 96.2828C140.536 94.9535 142.813 97.3548 143.562 98.1347C145.136 99.7896 146.513 102.198 147.341 104.741C147.966 106.66 148.068 108.023 148.006 108.743C147.425 108.662 146.834 108.798 146.349 109.127C145.863 109.455 145.518 109.951 145.381 110.519C145.243 111.087 145.323 111.686 145.605 112.198C145.887 112.71 146.351 113.1 146.906 113.29C148.849 113.952 150.637 113.467 151.718 112.001C153.235 116.724 155.219 121.285 157.643 125.617C157.301 125.303 156.941 124.996 156.559 124.694V124.696ZM237.51 115.131C235.987 116.096 233.895 117.117 231.681 118.197C227.973 120.005 223.77 122.055 220.437 124.694C220.358 124.756 220.284 124.827 220.204 124.885C222.38 120.891 224.187 116.707 225.601 112.387C226.697 113.545 228.33 113.885 230.09 113.286C230.645 113.096 231.108 112.706 231.391 112.194C231.673 111.682 231.753 111.083 231.615 110.515C231.478 109.947 231.133 109.451 230.647 109.122C230.162 108.794 229.571 108.658 228.99 108.739C228.928 108.019 229.03 106.656 229.655 104.737C230.483 102.191 231.86 99.7789 233.434 98.1307C234.183 97.3441 236.46 94.9495 239.484 96.2788C242.328 97.5277 243.111 100.248 243.269 102.309C243.64 107.133 241.056 112.884 237.51 115.131Z" fill="#1EC28B"/>
<path d="M216.946 176.655H160.054V212.568H216.946V176.655Z" fill="#545355"/>
<path d="M209.114 181.81H167.885V205.322H209.114V181.81Z" fill="#D7F4E6"/>
<path d="M222.217 218.981H154.783V213.621C154.783 212.62 155.182 211.659 155.894 210.951C156.606 210.243 157.571 209.845 158.577 209.845H218.423C218.921 209.845 219.415 209.943 219.875 210.133C220.335 210.322 220.754 210.601 221.106 210.951C221.458 211.302 221.738 211.718 221.928 212.176C222.119 212.634 222.217 213.125 222.217 213.621V218.981Z" fill="#414042"/>
<path d="M171.643 131.905C171.117 131.985 170.579 131.905 170.098 131.677C169.618 131.448 169.218 131.082 168.95 130.624C163.098 120.639 158.09 108.486 154.466 95.4789C154.359 95.1403 154.321 94.7835 154.355 94.43C154.389 94.0764 154.494 93.7333 154.664 93.4211C154.834 93.1089 155.066 92.834 155.345 92.6128C155.624 92.3916 155.945 92.2287 156.289 92.1338C156.633 92.0389 156.992 92.0139 157.346 92.0603C157.7 92.1067 158.041 92.2236 158.348 92.404C158.656 92.5844 158.923 92.8246 159.136 93.1102C159.348 93.3959 159.5 93.7211 159.583 94.0665C163.083 106.642 167.912 118.362 173.536 127.961C173.754 128.332 173.877 128.752 173.896 129.182C173.914 129.612 173.826 130.04 173.64 130.429C173.455 130.817 173.176 131.155 172.83 131.413C172.483 131.67 172.078 131.839 171.651 131.905H171.643Z" fill="#D7F4E6"/>
<path d="M231.039 79.0615H145.962C144.941 79.0615 144.114 79.8852 144.114 80.9013V80.9375C144.114 81.9536 144.941 82.7773 145.962 82.7773H231.039C232.06 82.7773 232.888 81.9536 232.888 80.9375V80.9013C232.888 79.8852 232.06 79.0615 231.039 79.0615Z" fill="#1EC28B"/>
<path d="M102.163 206.423C102.163 206.423 102.509 210.711 102.229 212.096C102.078 212.841 101.242 214.374 101.626 215.077C102.01 215.779 102.448 215.953 102.448 215.953L112.385 216.11C112.924 216.118 112.568 215.777 112.132 215.463C111.417 214.949 110.841 214.609 108.559 213.529C108.41 213.458 107.868 213.127 107.673 213.004C107.145 212.661 106.667 212.248 106.252 211.775C105.539 210.998 105.475 207.227 105.475 207.227L102.163 206.423Z" fill="#F7A491"/>
<path d="M109.931 149.51C109.931 149.51 114.201 147.415 113.38 151.972C112.559 156.529 106.301 207.782 106.301 207.782L100.444 208.102C100.444 208.102 99.695 191.014 99.8593 188.559C100.024 186.105 100.996 182.31 100.996 182.31L101.492 167.15L107.022 148.433L109.931 149.51Z" fill="#355389"/>
<path d="M107.671 213.004C105.043 213.663 103.101 213.214 102.016 212.785C101.735 213.562 101.363 214.538 101.561 215.101C101.802 215.789 102.117 216.095 102.42 216.103C104.821 216.165 111.242 216.103 113.073 216.122C113.13 216.123 113.186 216.108 113.234 216.079C113.282 216.05 113.321 216.007 113.346 215.956C113.37 215.905 113.379 215.848 113.372 215.792C113.365 215.736 113.341 215.684 113.305 215.641C112.85 215.11 107.868 213.12 107.671 213.004Z" fill="#3C8F7C"/>
<path d="M113.38 118.708C113.38 118.708 116.991 111.794 117.554 109.254C118.117 106.715 120.052 93.9342 119.887 93.1088C119.723 92.2833 116.656 90.3042 117.036 89.6047C117.415 88.9052 120.336 88.9039 121.005 88.9628C121.674 89.0218 123.024 89.4117 123.594 89.8834C124.164 90.3551 122.948 105.677 122.581 108.976C122.215 112.275 117.734 122.432 117.734 122.432L113.38 118.708Z" fill="#F7A491"/>
<path d="M85.2437 172.603C85.2437 172.603 82.264 169.494 81.6016 168.237C81.2461 167.567 80.9284 165.849 80.1825 165.545C79.4365 165.241 78.9895 165.38 78.9895 165.38L71.1802 171.489C70.7548 171.821 71.2489 171.863 71.7861 171.832C72.6667 171.784 73.3291 171.686 75.785 171.094C75.9452 171.056 76.5794 170.979 76.8056 170.946C77.4339 170.881 78.0682 170.902 78.6906 171.009C79.7368 171.166 82.1711 174.055 82.1711 174.055L85.2437 172.603Z" fill="#F7A491"/>
<path d="M76.8004 170.946C78.4241 168.786 80.2162 167.916 81.3311 167.568C81.0618 166.788 80.7575 165.768 80.2539 165.456C79.6305 165.073 79.1997 165.152 78.96 165.336C77.0562 166.794 72.0744 170.78 70.6391 171.91C70.5942 171.944 70.5603 171.991 70.5413 172.044C70.5224 172.097 70.5193 172.154 70.5324 172.209C70.5455 172.264 70.5742 172.314 70.6151 172.352C70.656 172.391 70.7074 172.418 70.763 172.428C71.4456 172.556 76.5742 170.984 76.8004 170.946Z" fill="#3C8F7C"/>
<path d="M85.1738 116.603C87.0278 112.733 91.1357 110.601 95.1144 111.633C96.5416 109.71 98.7498 108.364 101.047 108.041C105.579 107.402 111.426 109.589 110.83 114.298C112.261 117.592 111.907 122.129 109.05 124.348C109.575 128.676 105.215 132.522 100.053 131.998C97.9769 134.851 94.3672 136.525 90.9903 135.872C90.1825 135.716 88.9491 135.422 88.7378 135.459C89.007 135.43 82.8498 139.439 78.6086 132.3C74.2785 125.022 78.5413 116.876 85.1738 116.603Z" fill="#184655"/>
<path d="M111.65 151.161C111.65 151.161 102.071 146.923 101.921 147.409C100.72 151.259 96.9832 150.017 94.7643 156.798C93.8353 159.637 92.8793 178.523 92.8793 178.523C92.8793 178.523 89.1026 175.403 83.7048 169.947C83.2901 169.528 79.2319 173.369 79.2319 173.369C89.9468 187.776 94.5678 188.527 96.3558 187.721C100.088 186.036 107.962 162.484 107.95 162.487C108.898 160.658 111.65 151.161 111.65 151.161Z" fill="#466EB6"/>
<path d="M95.7688 124.556C95.7688 124.556 81.9234 124.539 78.96 124.367C76.2765 124.214 65.6303 124.484 65.2197 124.435C64.809 124.387 62.0529 119.745 61.5964 120.249C61.14 120.753 63.1273 122.547 62.512 123.015C61.8967 123.483 55.2924 122.436 55.3759 122.921C55.5402 123.831 59.3937 123.716 59.3896 124.154C59.3856 124.592 55.3571 123.907 55.081 124.636C54.805 125.365 58.9561 124.934 59.1203 125.259C59.2846 125.585 55.2736 126.179 55.6842 126.857C55.9064 127.225 59.2388 126.243 59.2227 126.744C59.2065 127.245 56.7749 128.387 57.0684 128.786C57.3619 129.186 58.9763 127.56 60.3873 127.54C61.7984 127.52 62.8109 126.787 65.0608 127.406C66.1729 127.71 74.6622 128.746 81.8359 129.353C89.1901 129.978 95.2181 130.177 95.2181 130.177L95.7688 124.556Z" fill="#F7A491"/>
<path d="M116.299 134.296C116.484 132.084 116.046 130.381 115.946 129.646C116.62 127.348 118.048 122.445 118.562 121.482C118.562 121.482 116.152 116.872 113.684 116.903C113.684 116.903 111.165 122.556 109.216 123.568C109.187 123.568 108.526 123.862 108.237 123.859C106.352 123.846 99.7812 123.647 98.5532 123.626L99.2439 132.908C104.008 142.201 102.718 147.078 100.905 148.882C100.053 149.73 112.793 153.17 113.38 151.972C114.071 150.554 115.928 138.769 116.299 134.296Z" fill="#1EC28B"/>
<path d="M101.894 123.977C100.682 123.401 91.9072 123.689 91.9072 123.689C91.9072 123.689 90.6806 129.77 91.6702 131.232C91.6702 131.232 99.5172 132.393 99.2937 133.034L101.894 123.977Z" fill="#1EC28B"/>
<path d="M104.195 120.064C104.195 120.064 104.348 123.38 104.195 124.762C104.041 126.143 105.619 129.382 108.561 129.438C111.503 129.495 108.993 126.331 108.735 124.972C108.476 123.613 108.168 118.291 108.168 118.291L104.195 120.064Z" fill="#F7A491"/>
<path d="M108.165 118.295C108.165 118.295 108.238 119.531 108.34 120.963C107.413 122.065 105.987 122.628 104.253 121.956C104.234 120.93 104.195 120.068 104.195 120.068L108.165 118.295Z" fill="#F47458"/>
<path d="M103.951 110.185C102.854 110.572 101.932 111.336 101.35 112.339C100.415 113.998 100.022 118.718 103.614 120.663C107.207 122.607 109.673 119.339 109.505 116.328C109.337 113.317 108.416 109.344 103.951 110.185Z" fill="#F7A491"/>
<path d="M110.227 115.332C109.984 116.079 109.432 116.569 108.996 116.428C108.56 116.288 108.402 115.568 108.646 114.82C108.89 114.073 109.44 113.584 109.877 113.724C110.313 113.865 110.47 114.586 110.227 115.332Z" fill="#F7A491"/>
<path d="M104.452 110.052C104.452 110.052 102.627 115.01 100.763 115.575C98.8979 116.141 99.0971 118.557 99.0971 118.557C99.0971 118.557 98.7525 112.958 100.444 111.553C102.135 110.147 104.452 110.052 104.452 110.052Z" fill="#184655"/>
<path d="M101.584 116.525C101.888 117.29 101.719 118.076 101.194 118.279C100.668 118.483 100.007 118.03 99.7031 117.265C99.3988 116.5 99.5684 115.715 100.094 115.51C100.619 115.305 101.281 115.76 101.584 116.525Z" fill="#F7A491"/>
<path d="M124.115 91.0637C124.115 91.0637 120.06 91.2392 119.583 91.2392C119.106 91.2392 117.721 89.8135 117.721 89.8135L124.115 91.0637Z" fill="#F47458"/>
<path d="M139.084 79.0057C140.996 70.5618 135.668 62.1739 127.184 60.271C118.699 58.368 110.271 63.6706 108.359 72.1146C106.447 80.5586 111.775 88.9464 120.26 90.8494C128.744 92.7523 137.172 87.4497 139.084 79.0057Z" fill="#FAE0B2"/>
<path d="M112.913 68.0116C111.412 70.1411 110.58 72.6656 110.521 75.2658C110.462 77.8661 111.18 80.4253 112.582 82.6199C113.985 84.8144 116.01 86.5458 118.401 87.5951C120.792 88.6443 123.443 88.9643 126.017 88.5146C128.591 88.0649 130.973 86.8656 132.862 85.0685C134.751 83.2714 136.063 80.9571 136.63 78.4183C137.198 75.8795 136.996 73.2302 136.051 70.8054C135.106 68.3806 133.459 66.2892 131.32 64.7956C129.899 63.8038 128.296 63.1002 126.602 62.7251C124.908 62.35 123.156 62.3106 121.447 62.6092C119.738 62.9079 118.104 63.5387 116.64 64.4656C115.176 65.3926 113.909 66.5975 112.913 68.0116Z" fill="#F7CC7F"/>
<path d="M119.583 91.2391L117.908 89.741C117.908 89.741 118.698 88.803 118.37 88.6208C117.831 88.3273 116.921 89.4636 117.003 89.7383C117.085 90.013 118.067 90.9055 118.067 90.9055L119.583 91.2391Z" fill="#F7A491"/>
<path d="M55.0757 217.658C55.0757 218.273 55.5389 218.77 56.1124 218.77H314.691C315.265 218.77 315.728 218.273 315.728 217.658C315.728 217.044 315.265 216.545 314.691 216.545H56.1124C55.5389 216.544 55.0757 217.044 55.0757 217.658Z" fill="#13375B"/>
<path d="M212.986 79.06H170.417C169.596 79.06 168.808 78.7353 168.228 78.1573C167.647 77.5793 167.321 76.7954 167.321 75.978C167.321 75.1606 167.647 74.3767 168.228 73.7987C168.808 73.2207 169.596 72.896 170.417 72.896H212.986C213.807 72.896 214.595 73.2207 215.176 73.7987C215.757 74.3767 216.083 75.1606 216.083 75.978C216.083 76.7954 215.757 77.5793 215.176 78.1573C214.595 78.7353 213.807 79.06 212.986 79.06Z" fill="#F7CC7F"/>
<path d="M212.12 72.9052H169.552C168.73 72.9052 167.943 72.5805 167.362 72.0025C166.781 71.4245 166.455 70.6406 166.455 69.8232C166.455 69.0058 166.781 68.2219 167.362 67.6439C167.943 67.0659 168.73 66.7412 169.552 66.7412H212.12C212.942 66.7412 213.729 67.0659 214.31 67.6439C214.891 68.2219 215.217 69.0058 215.217 69.8232C215.217 70.6406 214.891 71.4245 214.31 72.0025C213.729 72.5805 212.942 72.9052 212.12 72.9052Z" fill="#FAE0B2"/>
<path d="M217.116 66.7494H174.547C173.726 66.7494 172.938 66.4247 172.357 65.8468C171.776 65.2688 171.45 64.4848 171.45 63.6674C171.45 62.8501 171.776 62.0661 172.357 61.4881C172.938 60.9102 173.726 60.5854 174.547 60.5854H217.116C217.937 60.5854 218.725 60.9102 219.305 61.4881C219.886 62.0661 220.212 62.8501 220.212 63.6674C220.212 64.4848 219.886 65.2688 219.305 65.8468C218.725 66.4247 217.937 66.7494 217.116 66.7494Z" fill="#F7CC7F"/>
<path d="M119.381 77.8458L121.438 71.2383L128.078 73.2858L126.026 79.8933L119.381 77.8458Z" fill="#EFB860"/>
<path d="M130.586 70.953L120.695 67.9018C120.535 67.8523 120.366 67.8347 120.198 67.8501C120.031 67.8656 119.868 67.9137 119.72 67.9917C119.571 68.0697 119.439 68.1762 119.332 68.3049C119.225 68.4336 119.144 68.5822 119.094 68.742L116.028 78.587C115.928 78.9093 115.96 79.2582 116.118 79.557C116.276 79.8558 116.546 80.08 116.87 80.1802L126.761 83.2301C127.085 83.3302 127.436 83.2981 127.736 83.1408C128.037 82.9835 128.262 82.7139 128.363 82.3912L131.428 72.5463C131.477 72.3864 131.495 72.2183 131.48 72.0517C131.464 71.885 131.416 71.723 131.337 71.5749C131.259 71.4269 131.152 71.2956 131.023 71.1886C130.893 71.0817 130.744 71.0012 130.583 70.9517L130.586 70.953ZM127.177 82.075L117.188 78.993L120.284 69.0502L130.275 72.1322L127.177 82.075Z" fill="#EFB860"/>
</svg>
