<svg width="41" height="35" viewBox="0 0 41 35" fill="none" xmlns="http://www.w3.org/2000/svg">
<path d="M18.4633 1.27516C18.6509 0.892444 18.9413 0.570163 19.3016 0.344802C19.662 0.119441 20.0779 0 20.5023 0C20.9267 0 21.3426 0.119441 21.7029 0.344802C22.0633 0.570163 22.3537 0.892444 22.5413 1.27516L26.9284 10.2109L36.7415 11.6461C37.1613 11.7074 37.5557 11.8856 37.8801 12.1606C38.2044 12.4355 38.4458 12.7963 38.5768 13.2019C38.7078 13.6076 38.7233 14.0421 38.6216 14.4561C38.5198 14.8702 38.3047 15.2474 38.0008 15.545L30.8996 22.5016L32.5771 32.3287C32.6487 32.749 32.602 33.181 32.4421 33.576C32.2823 33.9709 32.0157 34.3131 31.6726 34.5637C31.3294 34.8143 30.9234 34.9634 30.5004 34.9941C30.0773 35.0248 29.6542 34.9359 29.2788 34.7375L20.5045 30.0982L11.7257 34.7375C11.3502 34.9355 10.9271 35.0239 10.5042 34.9928C10.0813 34.9617 9.67548 34.8123 9.3326 34.5615C8.98973 34.3107 8.72346 33.9685 8.56391 33.5735C8.40435 33.1785 8.35786 32.7465 8.42969 32.3264L10.105 22.5016L3.00374 15.545C2.69981 15.2474 2.48479 14.8702 2.383 14.4561C2.2812 14.0421 2.2967 13.6076 2.42773 13.2019C2.55877 12.7963 2.80011 12.4355 3.12445 12.1606C3.4488 11.8856 3.84321 11.7074 4.26305 11.6461L14.0761 10.2132L18.4633 1.27288V1.27516ZM7.74776 23.642C7.84108 23.7592 7.91053 23.8937 7.95213 24.0379C7.99373 24.1821 8.00666 24.3331 7.9902 24.4823C7.97373 24.6315 7.92819 24.7759 7.85617 24.9074C7.78414 25.0389 7.68706 25.1549 7.57045 25.2486L1.88763 29.8194C1.77158 29.9176 1.63713 29.9915 1.49222 30.0367C1.34732 30.0819 1.19487 30.0974 1.04389 30.0824C0.892905 30.0675 0.746433 30.0222 0.613109 29.9494C0.479785 29.8766 0.362308 29.7777 0.267604 29.6586C0.1729 29.5394 0.102886 29.4024 0.0616904 29.2556C0.0204947 29.1087 0.00895088 28.9551 0.0277396 28.8038C0.0465283 28.6524 0.0952694 28.5064 0.171089 28.3742C0.246908 28.2421 0.348271 28.1266 0.469202 28.0345L6.15202 23.4638C6.38727 23.275 6.68739 23.1877 6.98655 23.2211C7.28571 23.2546 7.55946 23.4059 7.74776 23.642ZM7.57045 6.32582C7.69492 6.41659 7.79978 6.53182 7.87867 6.66451C7.95756 6.79721 8.00885 6.94463 8.02943 7.09783C8.05001 7.25104 8.03945 7.40685 7.9984 7.55583C7.95735 7.70482 7.88665 7.84388 7.7906 7.9646C7.69454 8.08532 7.57511 8.18519 7.43955 8.25816C7.30399 8.33113 7.15511 8.37568 7.00192 8.38913C6.84874 8.40257 6.69443 8.38462 6.54834 8.33637C6.40226 8.28812 6.26743 8.21056 6.15202 8.1084L0.469202 3.53767C0.344733 3.4469 0.239879 3.33167 0.160987 3.19898C0.0820954 3.06628 0.030807 2.91886 0.0102262 2.76566C-0.0103546 2.61245 0.000200295 2.45664 0.0412519 2.30766C0.0823035 2.15867 0.152998 2.01961 0.249057 1.89889C0.345115 1.77817 0.46454 1.6783 0.600102 1.60533C0.735663 1.53236 0.884543 1.48781 1.03773 1.47436C1.19092 1.46092 1.34522 1.47887 1.49131 1.52712C1.6374 1.57537 1.77222 1.65293 1.88763 1.75509L7.57045 6.32582ZM33.25 23.6443C33.1568 23.7616 33.0875 23.8963 33.0461 24.0405C33.0046 24.1848 32.9919 24.3358 33.0086 24.485C33.0253 24.6342 33.071 24.7787 33.1433 24.9101C33.2155 25.0415 33.3128 25.1573 33.4295 25.2509L39.1124 29.8216C39.2284 29.9199 39.3629 29.9938 39.5078 30.039C39.6527 30.0842 39.8051 30.0997 39.9561 30.0847C40.1071 30.0697 40.2536 30.0245 40.3869 29.9517C40.5202 29.8789 40.6377 29.78 40.7324 29.6608C40.8271 29.5417 40.8971 29.4046 40.9383 29.2578C40.9795 29.111 40.9911 28.9574 40.9723 28.8061C40.9535 28.6547 40.9047 28.5087 40.8289 28.3765C40.7531 28.2444 40.6517 28.1289 40.5308 28.0368L34.848 23.466C34.7314 23.3722 34.5976 23.3024 34.4542 23.2606C34.3108 23.2187 34.1606 23.2057 34.0122 23.2223C33.8638 23.2388 33.7201 23.2846 33.5893 23.357C33.4585 23.4295 33.3432 23.5271 33.25 23.6443ZM33.4295 6.32582C33.2103 6.51992 33.0738 6.79146 33.0484 7.08408C33.023 7.37669 33.1106 7.66791 33.2931 7.89727C33.4756 8.12664 33.739 8.27653 34.0285 8.31585C34.318 8.35516 34.6115 8.28087 34.848 8.1084L40.5308 3.53767C40.6553 3.4469 40.7601 3.33167 40.839 3.19898C40.9179 3.06628 40.9692 2.91886 40.9898 2.76566C41.0104 2.61245 40.9998 2.45664 40.9587 2.30766C40.9177 2.15867 40.847 2.01961 40.7509 1.89889C40.6549 1.77817 40.5355 1.6783 40.3999 1.60533C40.2643 1.53236 40.1155 1.48781 39.9623 1.47436C39.8091 1.46092 39.6548 1.47887 39.5087 1.52712C39.3626 1.57537 39.2278 1.65293 39.1124 1.75509L33.4295 6.32582Z" fill="#38B989"/>
</svg>
