<svg width="48" height="48" viewBox="0 0 48 48" fill="none" xmlns="http://www.w3.org/2000/svg">
<path d="M17.1433 24L24.0003 17.1431L30.8572 24L24.0003 30.857L17.1433 24Z" fill="#1EC28B"/>
<path d="M35.4768 22.7375L25.2634 12.5223C24.9283 12.1878 24.4743 12 24.0009 12C23.5274 12 23.0734 12.1878 22.7383 12.5223L12.5223 22.7375C12.1878 23.0725 12 23.5266 12 24C12 24.4734 12.1878 24.9275 12.5223 25.2625L22.7375 35.4777C23.0725 35.8122 23.5266 36 24 36C24.4734 36 24.9275 35.8122 25.2625 35.4777L35.4777 25.2625C35.8122 24.9275 36 24.4734 36 24C36 23.5266 35.8122 23.0725 35.4777 22.7375H35.4768ZM24 34.3163L13.6846 24L24 13.6837L34.3163 24L24 34.3163Z" fill="#1EC28B"/>
</svg>
