<svg width="337" height="243" viewBox="0 0 337 243" fill="none" xmlns="http://www.w3.org/2000/svg">
<path d="M322.46 242.017C301.202 242.017 13.8049 241.397 13.8049 241.362C13.6872 241.076 -22.6785 196.513 23.1133 149.914C45.8026 126.818 2.27729 96.9093 23.1133 71.2262C58.8034 27.2304 94.1205 52.004 123.538 39.6344C128.736 37.4511 133.952 33.9352 139.174 28.5401C142.082 25.5439 145.304 22.8694 148.785 20.5629C149.314 20.21 149.849 19.8662 150.387 19.5315C152.456 18.2517 154.597 17.0903 156.798 16.0528C158.279 15.3538 159.789 14.7078 161.326 14.1148C163.782 13.1688 166.287 12.3547 168.83 11.6762C172.507 10.6949 176.245 9.96166 180.019 9.48143C181.683 9.26434 183.361 9.09316 185.051 8.96788C217.924 6.49626 254.911 20.3965 274.008 40.7132C277.851 44.8043 295.329 65.9716 281.552 95.0674C272.854 113.437 309.294 130.981 322.245 151.958C355.168 205.285 322.758 241.318 322.46 242.017Z" fill="#EAF9F2"/>
<path d="M23.2968 241.481H37.8713C38.6531 240.819 37.3305 239.314 35.9505 239.213C35.3509 239.167 34.592 239.294 33.7256 239.476C33.5248 236.812 32.38 224.844 28.0637 225.319C23.2108 225.858 28.0637 230.592 29.435 233.395C30.4521 235.472 31.5236 238.449 32.0171 239.85C31.6226 239.936 31.2152 240.02 30.7978 240.096C30.1551 238.122 27.761 231.477 24.717 231.864C21.1437 232.318 22.581 234.982 25.1129 236.562C26.9777 237.726 29.2543 239.378 30.3388 240.176C29.3977 240.34 28.4436 240.417 27.4884 240.405C24.9881 240.35 23.7702 241.085 23.2968 241.481Z" fill="#1EC28B"/>
<path d="M255.24 241.481H241.704C240.978 240.866 242.206 239.473 243.488 239.374C244.045 239.332 244.749 239.448 245.554 239.619C245.74 237.145 246.803 226.022 250.813 226.469C255.321 226.97 250.813 231.367 249.539 233.972C248.595 235.9 247.599 238.665 247.143 239.971C247.511 240.05 247.889 240.127 248.275 240.199C248.873 238.364 251.097 232.193 253.924 232.553C257.244 232.973 255.909 235.448 253.557 236.917C251.836 237.997 249.711 239.532 248.704 240.273C249.578 240.425 250.464 240.496 251.351 240.486C253.67 240.43 254.802 241.114 255.24 241.481Z" fill="#1EC28B"/>
<path d="M181.097 54.0924C186.717 47.4937 195.383 34.2391 201.217 27.451C201.485 27.1382 201.658 26.7549 201.715 26.3466C201.772 25.9383 201.71 25.5223 201.538 25.148C201.365 24.7737 201.088 24.4569 200.741 24.2352C200.393 24.0136 199.989 23.8965 199.577 23.8978H188.962L198.976 1.25439C199.406 0.287541 198.087 -0.482781 197.454 0.363568L173.234 32.773C173.077 32.9834 172.985 33.2354 172.97 33.4976C172.955 33.7598 173.017 34.0207 173.149 34.2479C173.281 34.475 173.476 34.6584 173.712 34.7751C173.947 34.8919 174.211 34.9369 174.472 34.9047L186.49 33.4243L179.339 53.0667C178.951 54.1483 180.351 54.9674 181.097 54.0924Z" fill="#1EC28B"/>
<path d="M131.112 94.2821C132.375 87.7982 133.173 75.7528 134.51 69.0624C134.571 68.754 134.543 68.4346 134.428 68.1419C134.313 67.8492 134.117 67.5957 133.862 67.4115C133.607 67.2273 133.305 67.1202 132.991 67.1028C132.677 67.0855 132.365 67.1587 132.091 67.3137L125.035 71.2858L123.216 52.494C123.137 51.6921 121.975 51.6735 121.871 52.4725L117.912 83.0544C117.886 83.253 117.919 83.4549 118.006 83.6349C118.094 83.8149 118.233 83.9651 118.406 84.0668C118.579 84.1685 118.777 84.2171 118.977 84.2067C119.177 84.1963 119.37 84.1273 119.531 84.0083L126.96 78.5286L129.558 94.2506C129.707 95.1213 130.944 95.1428 131.112 94.2821Z" fill="#D7F4E6"/>
<path d="M222.953 223.326L106.989 187.934C98.183 185.246 95.4904 174.097 102.098 167.687L192.146 80.3161C198.979 73.6873 210.435 77.1831 212.401 86.4973L238.317 209.261C240.225 218.27 231.761 226.014 222.953 223.326Z" fill="#E6EFFF"/>
<path d="M221.615 227.713L105.65 192.32C102.876 191.473 100.371 189.917 98.3821 187.806C96.3933 185.695 94.9892 183.102 94.3085 180.283C93.6278 177.463 93.694 174.515 94.5005 171.729C95.3069 168.943 96.8259 166.416 98.9074 164.396L188.958 77.0244C193.383 72.7309 199.544 71.2419 205.441 73.0422C211.338 74.8425 215.626 79.5175 216.893 85.5495L242.807 208.315C243.406 211.153 243.254 214.098 242.368 216.859C241.481 219.621 239.889 222.104 237.75 224.062C235.61 226.021 232.997 227.388 230.168 228.028C227.339 228.668 224.392 228.56 221.618 227.713H221.615ZM202.76 81.8141C201.477 81.4121 200.109 81.3666 198.802 81.6825C197.495 81.9983 196.299 82.6637 195.341 83.6072L105.291 170.979C104.354 171.888 103.67 173.026 103.307 174.28C102.945 175.534 102.915 176.861 103.222 178.13C103.528 179.4 104.16 180.567 105.056 181.517C105.951 182.467 107.079 183.167 108.328 183.548L224.292 218.94C225.541 219.321 226.867 219.371 228.141 219.083C229.414 218.795 230.59 218.18 231.554 217.298C232.517 216.417 233.233 215.299 233.632 214.056C234.032 212.813 234.1 211.487 233.83 210.21L207.914 87.4445C207.646 86.1269 207.025 84.9069 206.117 83.9151C205.21 82.9234 204.049 82.1971 202.76 81.8141Z" fill="#1EC28B"/>
<path d="M160.645 179.546C161.064 178.121 161.766 176.795 162.709 175.647C163.606 174.561 164.719 173.674 165.977 173.042C167.282 172.399 168.703 172.024 170.156 171.94C171.686 171.839 173.308 172.049 175.023 172.572C176.618 173.035 178.117 173.782 179.447 174.776C180.62 175.655 181.602 176.764 182.333 178.034C183.024 179.261 183.452 180.618 183.59 182.019C183.731 183.498 183.573 184.991 183.125 186.407C182.712 187.825 182.012 189.143 181.071 190.28C180.172 191.351 179.063 192.226 177.813 192.851C176.498 193.498 175.064 193.869 173.6 193.941C171.941 194.023 170.281 193.806 168.698 193.3C166.977 192.775 165.514 192.043 164.309 191.105C163.15 190.226 162.18 189.122 161.458 187.859C160.769 186.642 160.338 185.297 160.19 183.907C160.042 182.438 160.197 180.953 160.645 179.546ZM186.101 166.184L169.398 161.086L184.45 103.289L205.887 109.831L186.101 166.184Z" fill="#1EC28B"/>
<path d="M87.7026 157.452C87.7026 157.452 88.0813 156.6 88.3266 156.197C88.5719 155.794 89.6177 154.619 89.7984 154.88C89.9792 155.141 90.6907 156.948 90.312 157.452C89.9333 157.955 90.3364 158.835 88.4471 159.365L87.7026 157.452Z" fill="#FFB27D"/>
<path d="M66.749 152.072C66.749 152.072 76.4003 160.13 80.1644 159.388C83.108 158.804 87.76 157.328 87.76 157.328C87.76 157.328 88.9879 158.497 88.6408 159.897C88.6408 159.897 82.7135 165.475 78.4903 165.511C71.8917 165.567 68.776 162.24 68.776 162.24L66.749 152.072Z" fill="#1AA372"/>
<path d="M49.8206 237.059C49.8206 237.059 50.1075 241.579 50.9754 241.649C51.0916 241.658 55.4108 241.658 55.4108 241.658L60.9236 241.626C60.9236 241.626 60.8877 240.296 59.2768 240.017C57.6659 239.737 54.9733 238.602 53.9907 236.472C52.9636 234.226 49.8206 237.059 49.8206 237.059Z" fill="#113C68"/>
<path d="M49.5021 237.371C49.5021 237.371 51.1791 237.932 52.4873 237.932C53.4291 237.92 54.3654 237.787 55.2731 237.535C55.2731 237.535 55.5887 234.484 57.3259 227.76C58.2353 224.236 59.5364 219.704 61.3855 214.074C66.4994 198.513 68.0544 189.409 68.1964 188.547C68.205 188.503 68.2079 188.48 68.2079 188.48L68.1907 188.473L52.4687 181.568C52.4687 181.568 54.411 203.015 51.9322 211.248C51.556 212.544 51.2557 213.861 51.0327 215.191C49.4663 224.133 49.5021 237.371 49.5021 237.371Z" fill="#2A4E96"/>
<path d="M57.3273 227.76C58.2367 224.236 59.5378 219.704 61.3869 214.074C66.5008 198.513 68.0558 189.409 68.1978 188.547C68.1978 188.521 68.1978 188.497 68.1978 188.473L52.4758 181.568C52.4758 181.568 54.4181 203.015 51.9393 211.248C51.5893 212.398 57.3273 227.76 57.3273 227.76Z" fill="#233862"/>
<path d="M62.1013 237.059C62.1013 237.059 62.3882 241.579 63.256 241.649C63.3722 241.658 67.6915 241.658 67.6915 241.658L73.2042 241.626C73.2042 241.626 73.1683 240.296 71.556 240.017C69.9436 239.737 67.2525 238.602 66.2713 236.472C65.2442 234.226 62.1013 237.059 62.1013 237.059Z" fill="#15447C"/>
<path d="M71.0152 182.073C71.0152 182.073 71.2189 195.972 68.8147 213.035C66.4105 230.099 67.2253 237.343 67.2253 237.343C67.2253 237.343 65.5728 237.878 64.9057 237.932C63.2073 238.076 61.463 237.535 61.463 237.535C61.463 237.535 58.0202 220.464 59.0085 211.924C59.9969 203.383 54.2948 182.615 54.2948 182.615L71.0152 182.073Z" fill="#2A4E96"/>
<path d="M59.8663 149.552L62.9347 151.561L65.7305 150.77C66.2412 150.041 66.3775 148.636 66.3847 147.419C66.3879 146.674 66.3515 145.929 66.2756 145.187L62.1343 143.36L60.5893 142.678C60.5893 142.703 60.7098 143.948 60.7328 144.128C61.0139 147.359 59.8663 149.552 59.8663 149.552Z" fill="#FFB27D"/>
<path d="M71.0855 185.938C67.2654 189.626 52.8086 189.006 51.9164 184.942C51.0241 180.878 52.889 150.348 59.4145 148.43C60.7686 148.033 68.0071 150.373 68.0071 150.373C68.8054 152.573 69.4346 154.831 69.8891 157.128C70.0326 157.865 70.4557 165.666 70.7713 172.964C70.9148 176.378 71.0424 179.682 71.107 182.102C71.1644 184.368 71.1672 185.857 71.0855 185.938Z" fill="#1EC28B"/>
<path d="M61.0354 144.188C61.8761 145.608 64.8225 146.852 66.3847 147.421C66.3879 146.676 66.3515 145.931 66.2756 145.189L62.1343 143.362C61.2191 143.349 60.661 143.554 61.0354 144.188Z" fill="#FCA56B"/>
<path d="M67.8364 144.937C67.8364 144.937 61.1645 147.018 59.9323 142.844C58.7001 138.67 57.0103 136.126 61.2234 134.62C65.4365 133.114 66.7318 134.462 67.482 135.756C68.2323 137.05 69.5405 144.289 67.8364 144.937Z" fill="#FFB27D"/>
<path d="M67.2152 135.354C67.2152 135.354 66.7849 140.212 65.7807 140.001C64.7766 139.79 63.6706 139.34 63.8169 140.804C63.9632 142.269 62.8443 144.776 61.3955 144.776C58.2884 144.763 54.913 136.79 55.7637 135.28C58.2181 130.913 70.7627 130.033 67.2152 135.354Z" fill="#163560"/>
<path d="M66.2341 148.536C66.148 148.5 61.2664 146.31 60.6955 146.499C60.1246 146.688 59.4145 148.43 59.4145 148.43L68.0071 150.373C68.0071 150.373 67.3314 148.998 66.2341 148.536Z" fill="#1AA372"/>
<path d="M96.618 172.175L69.2594 197.939C68.7229 198.444 68.0472 198.604 67.7575 198.296L66.8337 197.315C66.5468 197.006 66.7447 196.342 67.2812 195.837L94.6398 170.078C95.1763 169.573 95.852 169.412 96.1417 169.721L97.0655 170.701C97.3496 171.009 97.1545 171.675 96.618 172.175Z" fill="#1F4D84"/>
<path d="M81.2646 186.635L69.2594 197.939C68.7229 198.444 68.0472 198.605 67.7575 198.296L66.8337 197.315C66.5468 197.007 66.7447 196.342 67.2812 195.837L79.2865 184.534L81.2646 186.635Z" fill="#739AF0"/>
<path d="M90.3306 162.453C91.2834 165.577 92.9373 168.443 95.166 170.83C97.3947 173.218 100.139 175.065 103.19 176.23C106.242 177.396 109.519 177.849 112.772 177.555C116.025 177.261 119.167 176.228 121.96 174.534C124.753 172.841 127.122 170.532 128.887 167.784C130.652 165.035 131.765 161.92 132.143 158.676C132.52 155.431 132.151 152.144 131.065 149.064C129.978 145.984 128.202 143.192 125.873 140.903C125.763 140.793 125.651 140.685 125.536 140.579C122.093 137.34 117.676 135.329 112.972 134.86C108.268 134.391 103.541 135.489 99.5257 137.983C95.5104 140.478 92.4319 144.23 90.769 148.655C89.1061 153.08 88.952 157.93 90.3306 162.452V162.453ZM96.4587 142.657C99.1356 139.812 102.596 137.825 106.403 136.946C110.209 136.068 114.19 136.338 117.843 137.722C121.496 139.106 124.657 141.543 126.925 144.723C129.193 147.904 130.468 151.686 130.587 155.59C130.706 159.495 129.664 163.347 127.594 166.66C125.523 169.973 122.517 172.597 118.955 174.201C115.393 175.805 111.435 176.317 107.582 175.672C103.73 175.027 100.155 173.254 97.3094 170.577C95.4187 168.801 93.8967 166.67 92.8305 164.305C91.7643 161.941 91.1748 159.389 91.0958 156.796C91.0168 154.204 91.4498 151.621 92.37 149.196C93.2903 146.771 94.6797 144.551 96.4587 142.663V142.657Z" fill="#1F4D84"/>
<g opacity="0.5">
<path opacity="0.5" d="M125.229 169.736C122.552 172.582 119.091 174.57 115.285 175.449C111.478 176.328 107.496 176.059 103.843 174.674C100.189 173.29 97.0281 170.854 94.7594 167.673C92.4907 164.492 91.2161 160.71 91.097 156.805C90.9778 152.9 92.0193 149.047 94.0898 145.734C96.1604 142.421 99.1669 139.796 102.729 138.192C106.291 136.588 110.25 136.076 114.103 136.721C117.956 137.366 121.531 139.14 124.377 141.817C126.273 143.59 127.801 145.72 128.871 148.085C129.94 150.451 130.532 153.004 130.611 155.599C130.69 158.194 130.256 160.779 129.332 163.205C128.408 165.632 127.014 167.851 125.229 169.736Z" fill="#B3CFF9"/>
</g>
<path d="M71.107 182.102C56.0319 171.36 57.2857 157.025 57.2857 157.025C62.7956 160.132 68.2624 167.004 70.7699 172.964C70.9177 176.378 71.0424 179.682 71.107 182.102Z" fill="#1AA372"/>
<path d="M85.9855 177.21C87.0485 176.965 87.7614 176.162 87.9106 176.021C87.9106 176.021 88.3639 176.051 87.836 177.025C87.7915 177.107 87.6926 177.312 87.6194 177.455C87.6128 177.469 87.6098 177.485 87.6105 177.5C87.6111 177.515 87.6155 177.53 87.6233 177.544C87.6311 177.557 87.642 177.568 87.655 177.576C87.6681 177.584 87.683 177.589 87.6983 177.59C88.3123 177.638 88.9291 177.395 90.1111 177.641C90.2732 177.675 90.322 178.071 90.3148 178.232C90.3399 178.602 90.227 178.969 89.9978 179.262C89.807 179.513 89.2805 179.784 88.0928 180.258C87.6424 180.441 86.3528 180.304 85.1449 179.888L84.1795 179.442L84.4793 177.648L84.7217 177.699C85.1062 177.778 85.5867 177.308 85.9855 177.21Z" fill="#FFB27D"/>
<path d="M61.9636 150.371C61.9636 150.371 48.4191 152.953 65.9486 172.566C68.753 175.703 83.8998 179.787 83.8998 179.787C83.8998 179.787 85.4361 178.48 84.6615 177.421C84.6615 177.421 74.2328 169.847 71.9376 168.644C70.9047 168.101 67.931 156.555 66.2484 153.775C64.5657 150.995 61.9636 150.371 61.9636 150.371Z" fill="#1EC28B"/>
<path d="M88.0698 157.687C88.0698 157.687 88.5131 156.84 88.5992 156.396C88.6852 155.951 89.2432 154.646 89.4742 154.416C89.566 154.324 89.8687 154.443 89.9045 154.838C89.9203 155.01 89.8357 155.323 89.6865 155.699C89.4455 156.304 89.4842 157.126 89.3996 157.4C89.1902 158.081 88.0698 157.687 88.0698 157.687Z" fill="#FFB27D"/>
<path d="M278.322 137.997C276.2 137.293 274.736 138.181 274.736 138.181C268.628 138.432 268.401 144.692 269.118 147.022C270.122 150.294 266.562 152.873 270.514 154.194C275.104 155.73 278.945 153.907 278.682 154.699C293.178 155.845 283.146 139.598 278.322 137.997Z" fill="#163560"/>
<path d="M271.987 168.446C271.521 169.317 270.974 170.144 270.355 170.914C269.087 172.504 262.428 168.732 263.002 168.446C263.575 168.159 266.921 158.519 267.717 157.308C268.513 156.098 271.23 155.468 271.23 155.468L271.987 168.446Z" fill="#1EC28B"/>
<path d="M294.457 233.454C294.457 233.454 296.295 235.132 295.936 236.323C295.577 237.514 293.919 238.31 293.695 239.766C293.472 241.222 292.575 242.016 291.767 242.016H287.922C287.922 242.016 287.328 240.992 288.762 240.682C290.197 240.372 290.737 238.663 290.647 237.073C290.557 235.484 290.782 233.366 290.782 233.366L293.83 232.661L294.457 233.454Z" fill="#1F447F"/>
<path d="M278.903 234.167C278.903 234.167 279.564 241.272 278.759 241.669L268.431 241.647C268.431 241.647 268.431 240.455 270.089 240.191C271.748 239.927 274.663 238.955 275.155 236.792C275.647 234.628 278.903 234.167 278.903 234.167Z" fill="#1C3154"/>
<path d="M286.846 163.651C286.938 165.24 286.938 166.834 286.846 168.423C286.744 170.144 284.998 172.46 284.75 173.031C284.129 174.465 283.427 174.699 283.427 174.699L278.006 176.027L276.1 176.493L270.089 174.699C270.089 174.699 267.351 167.056 268.45 162.754C269.549 158.452 271.23 155.465 271.23 155.465C271.23 155.465 275.315 154.547 282.522 155.058L286.846 163.651Z" fill="#1EC28B"/>
<path d="M287.362 168.483C287.26 170.204 284.998 172.459 284.75 173.03C284.129 174.464 283.427 174.698 283.427 174.698L278.006 176.027L277.028 173.221C277.028 173.221 284.949 171.141 283.675 163.809L287.362 168.483Z" fill="#1AA372"/>
<path d="M270.471 175.858C270.471 175.858 267.494 185.125 267.304 188.279C267.113 191.433 272.994 233.095 273.231 234.549C273.453 235.92 275.155 236.792 275.155 236.792C275.746 237.081 276.426 237.132 277.054 236.936C278.605 236.505 279.094 235.974 279.094 235.974C279.094 235.974 281.41 206.262 279.977 195.648C279.104 189.084 278.619 182.474 278.526 175.852L270.471 175.858Z" fill="#233862"/>
<path d="M283.084 175.582C283.084 175.582 287.625 181.674 288.048 185.793C288.471 189.911 288.712 204.379 289.614 208.395C290.517 212.41 293.83 220.136 293.83 232.66C293.83 232.66 293.486 233.378 292.422 233.759C292.016 233.897 291.602 234.011 291.184 234.102C290.757 234.199 290.311 234.151 289.916 233.963C289.521 233.776 289.2 233.461 289.006 233.069C286.767 228.558 279.63 214.011 279.264 210.991C279.005 208.854 276.753 194.71 271.837 186.41C270.658 184.417 272.561 176.493 272.561 176.493L283.084 175.582Z" fill="#2A4E96"/>
<path d="M269.996 174.428C269.996 174.428 271.191 175.373 273.565 175.422C276.401 175.478 283.427 174.705 283.427 174.705C283.621 175.283 283.722 175.888 283.727 176.498C283.727 176.498 275.145 178.662 270.173 176.813C270.173 176.808 269.531 175.601 269.996 174.428Z" fill="#233862"/>
<path d="M272.885 177.864C272.168 177.864 271.594 177.207 271.594 176.4C271.594 175.592 272.168 174.935 272.885 174.935C273.602 174.935 274.176 175.592 274.176 176.4C274.176 177.207 273.598 177.864 272.885 177.864ZM272.885 175.364C272.407 175.364 272.024 175.829 272.024 176.4C272.024 176.971 272.412 177.435 272.885 177.435C273.359 177.435 273.746 176.971 273.746 176.4C273.746 175.829 273.361 175.364 272.885 175.364Z" fill="white"/>
<path d="M279.085 180.528L266.186 180.649L259.839 165.733L272.737 165.612L279.085 180.528Z" fill="#B5453C"/>
<path d="M277.398 173.788L276.453 172.626C276.453 172.626 275.813 172.052 275.348 171.959C274.883 171.866 273.904 171.296 273.808 171.456C273.712 171.615 274.562 172.747 274.562 172.747H274.605C273.631 173.478 271.172 172.833 270.868 173.131C270.501 173.493 271.375 174.279 271.844 174.709C272.313 175.139 273.654 175.881 274.7 175.555C275.464 175.317 276.667 175.075 276.667 175.075L277.398 173.788Z" fill="#FFB27D"/>
<path d="M260.808 168.357C260.808 168.357 261.62 167.436 262.135 167.878C262.65 168.32 262 170.494 261.508 170.273C261.016 170.052 260.527 168.627 260.808 168.357Z" fill="#FFB27D"/>
<path d="M282.522 155.058C282.522 155.058 286.215 155.465 288.864 160.279C290.954 164.076 294.526 171.075 293.178 173.046C292.587 173.914 286.915 177.002 275.972 175.237C275.972 175.237 276.144 173.855 277.028 173.214C277.028 173.214 286.235 170.259 286.219 169.671C286.19 168.558 284.975 167.596 279.833 162.452C278.434 161.06 282.522 155.058 282.522 155.058Z" fill="#1EC28B"/>
<path d="M279.68 155.248C279.807 155.078 279.643 154.531 279.441 153.527C279.257 152.612 278.946 151.196 278.952 149.604L278.679 149.649L274.103 150.42C274.103 150.42 274.208 151.643 274.211 152.795V152.824C274.211 153.828 273.941 155.339 274.278 155.537C276.012 156.555 279.191 155.908 279.68 155.248Z" fill="#FFB27D"/>
<path d="M274.103 150.423C274.103 150.423 274.195 152.144 274.198 153.3C276.758 153.239 278.125 150.753 278.679 149.652L274.103 150.423Z" fill="#E8945B"/>
<path d="M273.828 152.48C273.828 152.48 279.827 151.619 279.237 147.898C278.648 144.177 279.025 141.549 275.169 141.936C271.313 142.324 270.797 143.864 270.69 145.157C270.584 146.449 272.251 152.606 273.828 152.48Z" fill="#FFB27D"/>
<path d="M272.429 142.279C272.429 142.279 274.764 146.392 277.381 146.637C279.997 146.882 280.982 146.036 280.982 146.036C279.568 145.143 278.508 143.788 277.983 142.2C277.983 142.2 273.333 140.001 272.429 142.279Z" fill="#163560"/>
<path d="M272.892 142.57C272.892 142.57 271.745 143.217 271.39 144.182C270.951 145.314 270.859 146.55 271.127 147.734C271.127 147.734 269.419 144.958 270.538 143.056C271.725 141.038 272.892 142.57 272.892 142.57Z" fill="#163560"/>
<path d="M335.024 241.481H2.46086C2.23111 241.481 2.04486 241.667 2.04486 241.897V242.137C2.04486 242.366 2.23111 242.553 2.46086 242.553H335.024C335.254 242.553 335.44 242.366 335.44 242.137V241.897C335.44 241.667 335.254 241.481 335.024 241.481Z" fill="#233862"/>
</svg>
