<svg width="342" height="244" viewBox="0 0 342 244" fill="none" xmlns="http://www.w3.org/2000/svg">
<path d="M310.046 149.228C310.075 141.766 308.428 134.393 305.227 127.651C302.041 120.98 297.409 115.234 291.741 110.897C291.898 109.276 291.979 107.649 291.985 106.017C291.985 80.2394 272.893 59.3506 249.357 59.3506C242.107 59.342 234.977 61.3611 228.665 65.2066C211.997 53.3665 190.241 46.2002 166.439 46.2002C127.72 46.2002 94.3982 65.1675 79.6201 92.3674C78.7981 92.3162 77.9724 92.2869 77.1394 92.2869C53.5976 92.2869 34.5116 113.184 34.5116 138.962C34.4957 148.067 36.9324 156.98 41.5262 164.617C41.5262 187.809 61.8019 206.611 86.807 206.611H268.194C287.835 206.611 303.755 191.849 303.755 173.637C307.886 166.279 310.061 157.834 310.046 149.228Z" fill="#EAF9F2"/>
<path d="M241.93 187.188C238.209 184.08 236.301 181.203 235.957 180.658L249.049 172.401C249.049 172.401 249.031 172.37 248.993 172.314C249.004 172.33 250.092 173.932 252.273 175.659C255.058 177.865 258.371 179.307 261.885 179.844C266.462 180.576 271.184 179.047 274.344 177.64C276.417 176.726 278.393 175.606 280.242 174.298L291.846 176.538L289.665 186.564C285.132 190.039 277.924 193.474 271.244 194.797C260.151 196.995 249.57 193.571 241.93 187.188Z" fill="#16A571"/>
<path d="M260.865 78.4069L263.937 76.8209L266.991 78.4472C267.069 78.4889 267.157 78.508 267.246 78.5021C267.335 78.4963 267.42 78.4658 267.492 78.4141C267.564 78.3624 267.62 78.2916 267.654 78.2097C267.688 78.1278 267.698 78.0381 267.683 77.9506L267.118 74.542L269.608 72.1447C269.672 72.0833 269.718 72.0053 269.74 71.9195C269.761 71.8336 269.759 71.7434 269.732 71.659C269.705 71.5746 269.655 71.4994 269.588 71.4418C269.52 71.3843 269.438 71.3467 269.351 71.3334L265.931 70.8161L264.416 67.71C264.377 67.6298 264.316 67.5622 264.241 67.5149C264.165 67.4676 264.078 67.4425 263.989 67.4425C263.899 67.4425 263.812 67.4676 263.736 67.5149C263.661 67.5622 263.6 67.6298 263.561 67.71L262.012 70.8002L258.586 71.2772C258.498 71.2894 258.416 71.3259 258.348 71.3825C258.279 71.4391 258.228 71.5136 258.201 71.5977C258.173 71.6817 258.169 71.7718 258.189 71.8579C258.21 71.944 258.254 72.0227 258.317 72.0849L260.781 74.5115L260.17 77.9141C260.156 78.0015 260.167 78.0912 260.201 78.1729C260.236 78.2546 260.292 78.3251 260.364 78.3764C260.437 78.4277 260.522 78.4577 260.61 78.4631C260.699 78.4685 260.787 78.449 260.865 78.4069Z" fill="#86B1F2"/>
<path d="M254.425 140.829H103.302V156.63H254.425V140.829Z" fill="#F47257"/>
<path d="M214.228 196.753C180.15 178.756 143.134 167.678 105.133 164.103C106.54 147.633 107.948 131.163 109.357 114.693C153.295 118.828 196.093 131.638 235.491 152.444L214.228 196.753Z" fill="#3C8F7C"/>
<path d="M108.482 155.069C109.442 144.797 110.402 134.525 111.361 124.253C115.354 124.663 118.934 122.089 119.368 118.397C155.998 122.993 191.7 133.678 225.128 150.05C223.641 153.425 225.385 157.592 228.982 159.455L215.927 187.225C212.615 185.51 208.697 186.927 207.212 190.3C177.857 175.924 146.507 166.541 114.338 162.504C114.773 158.818 112.158 155.446 108.482 155.069Z" fill="#96D9C9"/>
<path d="M187.123 156.77C184.051 165.607 174.578 170.107 165.792 167.41C157.011 164.69 151.369 155.529 153.343 146.356C155.317 137.183 165.059 131.716 174.939 134.766C184.819 137.816 190.19 147.945 187.123 156.77Z" fill="#50BFA5"/>
<path d="M165.717 164.293C165.962 163.307 166.206 162.321 166.45 161.334C165.192 160.926 163.989 160.363 162.869 159.659C162.466 159.406 162.171 159.011 162.044 158.553C161.917 158.094 161.965 157.605 162.18 157.18L162.235 157.076C162.357 156.85 162.524 156.651 162.728 156.494C162.931 156.337 163.166 156.224 163.415 156.163C163.665 156.102 163.925 156.095 164.178 156.141C164.431 156.187 164.672 156.286 164.884 156.431C165.894 157.102 167.001 157.614 168.167 157.949C169.962 158.45 171.365 158.127 171.69 156.885C171.997 155.706 171.179 154.659 169.003 153.225C165.864 151.151 163.859 148.992 164.552 145.953C165.177 143.201 167.72 141.554 171.426 141.877C171.67 140.89 171.915 139.903 172.159 138.915C173.249 139.216 174.337 139.524 175.424 139.838L174.724 142.573C175.734 142.9 176.706 143.333 177.625 143.864C178.563 144.416 178.894 145.572 178.381 146.441C177.85 147.341 176.631 147.598 175.685 147.011C174.825 146.477 173.893 146.066 172.918 145.791C170.791 145.189 169.888 145.879 169.676 146.75C169.423 147.781 170.409 148.74 172.893 150.524C176.393 152.942 177.439 155.13 176.671 157.908C175.905 160.662 173.293 162.389 169.56 161.979C169.287 163.037 169.014 164.094 168.74 165.151C167.734 164.858 166.726 164.571 165.717 164.293Z" fill="#3C8F7C"/>
<path d="M148.138 146.007C139.453 144.005 130.691 142.378 121.852 141.127L122.463 136.376C131.42 137.647 140.305 139.298 149.118 141.331C148.791 142.888 148.465 144.446 148.138 146.007Z" fill="#50BFA5"/>
<path d="M215.867 170.028C207.783 166.08 199.566 162.488 191.215 159.251C191.742 157.752 192.272 156.253 192.802 154.755C201.263 158.034 209.595 161.676 217.799 165.682L215.867 170.028Z" fill="#50BFA5"/>
<path d="M230.151 140.223C194.991 147.56 161.507 162.264 131.471 183.56C123.355 169.571 115.239 155.581 107.123 141.592C141.854 116.969 180.566 99.968 221.219 91.4841C224.197 107.731 227.174 123.978 230.151 140.223Z" fill="#3C8F7C"/>
<path d="M128.922 174.249L113.917 147.921C117.092 145.711 118.303 141.392 116.572 138.182C146.167 118.568 178.459 104.388 212.235 96.1702C213.015 99.7972 216.618 102.002 220.31 101.198C222.243 111.321 224.176 121.445 226.11 131.568C222.712 132.309 220.613 135.925 221.385 139.55C191.725 146.765 163.367 159.219 137.379 176.443C135.649 173.24 131.845 172.214 128.922 174.249Z" fill="#96D9C9"/>
<path d="M187.912 125.648C190.556 134.623 186.066 144.219 178.081 147.654C170.089 151.07 160.83 147.371 157.194 138.824C153.558 130.276 157.701 119.738 166.691 115.888C175.681 112.037 185.275 116.687 187.912 125.648Z" fill="#50BFA5"/>
<path d="M153.157 141.856C145.632 145.781 138.258 150.051 131.037 154.666C130.304 153.277 129.575 151.888 128.848 150.499C136.165 145.822 143.642 141.492 151.279 137.509C151.904 138.959 152.53 140.408 153.157 141.856Z" fill="#50BFA5"/>
<path d="M216.504 117.934C208.343 119.93 200.281 122.293 192.32 125.024L190.99 120.443C199.059 117.678 207.234 115.281 215.516 113.254C215.845 114.815 216.175 116.375 216.504 117.934Z" fill="#50BFA5"/>
<path d="M235.761 170.922C199.195 168.708 162.576 174.068 127.831 186.721C123.048 171.033 118.264 155.345 113.48 139.657C153.656 125.029 195.993 118.828 238.273 121.39C237.436 137.901 236.599 154.411 235.761 170.922Z" fill="#3C8F7C"/>
<path d="M127.476 177.037L118.74 147.583C122.404 146.284 124.61 142.424 123.644 138.859C157.556 127.717 192.876 122.547 228.275 123.542C228.201 127.259 231.259 130.348 235.107 130.547L233.773 161.477C230.231 161.292 227.299 164.235 227.23 167.949C196.143 167.074 165.127 171.609 135.348 181.399C134.382 177.838 130.847 175.842 127.476 177.037Z" fill="#96D9C9"/>
<path d="M197.288 145.628C197.817 155.014 191.128 163.112 182.411 164.322C173.691 165.51 165.375 159.477 163.758 150.241C162.141 141.004 168.711 131.904 178.522 130.56C188.332 129.215 196.764 136.257 197.288 145.628Z" fill="#50BFA5"/>
<path d="M159.054 152.107C150.68 153.913 142.374 156.092 134.137 158.646L132.939 154.035C141.284 151.446 149.706 149.236 158.204 147.404C158.488 148.971 158.772 150.539 159.054 152.107Z" fill="#50BFA5"/>
<path d="M227.43 145.738C218.873 145.506 210.33 145.657 201.798 146.191C201.717 144.596 201.633 143 201.548 141.405C210.192 140.865 218.855 140.712 227.537 140.944C227.503 142.542 227.467 144.14 227.43 145.738Z" fill="#50BFA5"/>
<path d="M254.425 140.829H103.302V207.262H254.425V140.829Z" fill="#1EC28B"/>
<path d="M254.424 190.302H217.03C215.372 190.302 214.027 191.707 214.027 193.441C214.027 195.176 215.371 196.581 217.03 196.581H212.181C210.523 196.581 209.178 197.987 209.178 199.721C209.178 201.455 210.522 202.862 212.181 202.862H213.017C211.36 202.862 210.015 204.267 210.015 206.001C210.014 206.434 210.1 206.863 210.268 207.262H254.424V190.302Z" fill="#B75742"/>
<path d="M246.442 144.1H108.871V149.26H246.442V144.1Z" fill="#D7F4E6"/>
<path d="M168.798 165.179H106.716C103.912 165.179 101.639 167.45 101.639 170.251V201.366C101.639 204.167 103.912 206.437 106.716 206.437H168.798C171.602 206.437 173.875 204.167 173.875 201.366V170.251C173.875 167.45 171.602 165.179 168.798 165.179Z" fill="#D7F4E6"/>
<path d="M124.072 173.384H106.283V183.714H124.072V173.384Z" fill="#1EC28B"/>
<path d="M169.302 170.767H137.756V172.696H169.302V170.767Z" fill="#1EC28B"/>
<path d="M166.957 192.805H108.903V195.188H166.957V192.805Z" fill="#1EC28B"/>
<path d="M166.957 198.415H108.903V200.797H166.957V198.415Z" fill="#1EC28B"/>
<path d="M174.763 157.791H110.619V159.504H174.763V157.791Z" fill="#D7F4E6"/>
<path d="M211.478 146.729C219.368 146.729 225.764 140.341 225.764 132.46C225.764 124.58 219.368 118.191 211.478 118.191C203.588 118.191 197.192 124.58 197.192 132.46C197.192 140.341 203.588 146.729 211.478 146.729Z" fill="#FAE0B2"/>
<path d="M221.29 125.582C222.652 127.52 223.407 129.818 223.461 132.186C223.515 134.553 222.866 136.883 221.594 138.882C220.322 140.88 218.486 142.457 216.317 143.413C214.148 144.369 211.744 144.661 209.409 144.253C207.074 143.844 204.913 142.753 203.198 141.118C201.484 139.482 200.293 137.376 199.778 135.065C199.262 132.753 199.443 130.341 200.3 128.133C201.156 125.925 202.649 124.021 204.589 122.66C205.878 121.756 207.332 121.115 208.869 120.773C210.406 120.431 211.995 120.394 213.546 120.666C215.096 120.937 216.579 121.511 217.907 122.354C219.236 123.198 220.386 124.295 221.29 125.582Z" fill="#F7CC7F"/>
<path d="M235.058 188.217C240.637 182.645 240.637 173.61 235.058 168.038C229.479 162.465 220.433 162.465 214.855 168.038C209.276 173.61 209.276 182.645 214.855 188.217C220.434 193.79 229.479 193.79 235.058 188.217Z" fill="#FAE0B2"/>
<path d="M234.767 171.249C236.128 173.188 236.883 175.486 236.936 177.854C236.99 180.221 236.339 182.551 235.067 184.549C233.794 186.547 231.958 188.123 229.788 189.079C227.619 190.034 225.215 190.325 222.88 189.916C220.545 189.506 218.384 188.415 216.67 186.778C214.956 185.142 213.766 183.035 213.252 180.724C212.737 178.412 212.919 176 213.777 173.793C214.634 171.585 216.128 169.681 218.069 168.321C219.358 167.418 220.812 166.777 222.349 166.436C223.885 166.094 225.475 166.058 227.025 166.33C228.576 166.602 230.058 167.177 231.386 168.021C232.714 168.864 233.863 169.961 234.767 171.249Z" fill="#F7CC7F"/>
<path d="M226.339 186.549L225.817 184.619C224.979 184.807 224.121 184.882 223.264 184.843C222.955 184.826 222.664 184.693 222.45 184.471C222.236 184.248 222.114 183.953 222.109 183.644V183.567C222.108 183.4 222.14 183.234 222.205 183.08C222.27 182.926 222.366 182.787 222.487 182.672C222.609 182.556 222.752 182.467 222.909 182.409C223.066 182.352 223.233 182.327 223.401 182.336C224.177 182.391 224.957 182.318 225.709 182.12C226.868 181.808 227.541 181.144 227.32 180.334C227.111 179.562 226.328 179.251 224.685 179.15C222.312 179.006 220.552 178.391 220.02 176.421C219.531 174.633 220.417 172.891 222.477 171.877L221.954 169.947L223.948 169.409L224.436 171.196C225.068 171.05 225.715 170.971 226.364 170.963C226.684 170.963 226.992 171.089 227.221 171.314C227.449 171.538 227.58 171.844 227.585 172.164C227.587 172.327 227.556 172.489 227.494 172.639C227.432 172.79 227.34 172.927 227.224 173.042C227.109 173.157 226.971 173.247 226.82 173.308C226.668 173.369 226.506 173.399 226.343 173.396C225.717 173.382 225.092 173.459 224.488 173.626C223.166 173.983 222.892 174.666 223.046 175.235C223.228 175.906 224.055 176.14 225.959 176.323C228.611 176.522 229.889 177.376 230.383 179.203C230.872 181.011 230.017 182.901 227.782 183.939L228.342 186.013L226.339 186.549Z" fill="white"/>
<path d="M197.416 174.546C205.304 174.415 211.593 167.922 211.463 160.042C211.332 152.163 204.831 145.881 196.942 146.012C189.053 146.142 182.764 152.636 182.895 160.516C183.026 168.395 189.527 174.677 197.416 174.546Z" fill="#FAE0B2"/>
<path d="M202.072 171.184C208.12 168.494 210.839 161.416 208.145 155.376C205.451 149.335 198.365 146.62 192.317 149.31C186.27 152.001 183.551 159.079 186.245 165.119C188.939 171.16 196.025 173.875 202.072 171.184Z" fill="#F7CC7F"/>
<path d="M246.442 168.492H181.741V203.126H246.442V168.492Z" fill="#EAF9F2"/>
<path d="M214.027 193.441C214.027 195.176 215.371 196.581 217.03 196.581H212.181C210.523 196.581 209.178 197.987 209.178 199.721C209.178 201.455 210.522 202.862 212.181 202.862H213.017C212.601 202.861 212.189 202.951 211.81 203.125H246.438V190.302H217.026C215.372 190.302 214.027 191.707 214.027 193.441Z" fill="#16A571"/>
<path d="M50.4097 206.25C50.4097 206.808 50.8311 207.262 51.3502 207.262H285.923C286.443 207.262 286.865 206.808 286.865 206.25C286.865 205.69 286.443 205.237 285.923 205.237H51.3502C50.8311 205.237 50.4097 205.692 50.4097 206.25Z" fill="#13375B"/>
<path d="M254.803 209.141H216.193C215.448 209.141 214.733 208.845 214.206 208.319C213.68 207.793 213.384 207.079 213.384 206.335C213.384 205.591 213.68 204.877 214.206 204.351C214.733 203.825 215.448 203.529 216.193 203.529H254.81C255.555 203.529 256.269 203.825 256.796 204.351C257.323 204.877 257.619 205.591 257.619 206.335C257.619 206.704 257.546 207.069 257.404 207.41C257.263 207.751 257.055 208.061 256.794 208.321C256.532 208.582 256.222 208.788 255.88 208.929C255.539 209.07 255.173 209.142 254.803 209.141Z" fill="#F7CC7F"/>
<path d="M254.019 203.536H215.401C214.656 203.536 213.942 203.241 213.415 202.714C212.888 202.188 212.592 201.475 212.592 200.73C212.592 199.986 212.888 199.272 213.415 198.746C213.942 198.22 214.656 197.924 215.401 197.924H254.019C254.764 197.924 255.479 198.22 256.006 198.746C256.533 199.272 256.829 199.986 256.829 200.73C256.829 201.475 256.533 202.188 256.006 202.714C255.479 203.241 254.764 203.536 254.019 203.536Z" fill="#FAE0B2"/>
<path d="M258.551 197.932H219.933C219.188 197.932 218.473 197.636 217.946 197.11C217.42 196.583 217.124 195.87 217.124 195.126C217.124 194.381 217.42 193.668 217.946 193.141C218.473 192.615 219.188 192.32 219.933 192.32H258.551C259.296 192.32 260.01 192.615 260.537 193.141C261.064 193.668 261.36 194.381 261.36 195.126C261.36 195.87 261.064 196.583 260.537 197.11C260.01 197.636 259.296 197.932 258.551 197.932Z" fill="#F7CC7F"/>
<path d="M209.432 76.583L209.924 79.9039L204.664 81.2825L204.782 86.2259L201.014 87.901L201.863 89.8066L206.903 87.5655L206.79 82.8819L212.264 81.446L211.523 76.4501L209.432 76.583Z" fill="#466EB6"/>
<path d="M145.296 67.8747L142.106 68.198L141.019 63.1289L136.297 63.0277L134.862 59.3677L133.006 60.0924L134.925 64.9882L139.401 65.0846L140.533 70.3587L145.333 69.8719L145.296 67.8747Z" fill="#50BFA5"/>
<path d="M182.16 64.0841L185.573 65.209C185.573 65.209 190.984 63.457 191.516 62.3554C192.049 61.2537 192.199 58.5819 192.97 58.5087C193.741 58.4355 195.227 58.6856 195.581 60.5144C195.839 61.843 193.892 65.6799 194.196 66.0886C194.387 66.3448 196.329 67.0463 197.757 67.5367C198.219 67.6976 198.628 67.9829 198.939 68.3611C199.25 68.7392 199.45 69.1957 199.518 69.6803C199.565 70.0068 199.5 70.3397 199.334 70.6249C199.168 70.9102 198.911 71.131 198.603 71.2516L197.626 71.631L197.94 72.6436C198.051 73.0067 198.017 73.3988 197.844 73.7371C197.671 74.0753 197.374 74.3333 197.014 74.4566L196.254 74.7115L196.499 75.3276C196.572 75.5163 196.606 75.7181 196.597 75.9203C196.589 76.1226 196.539 76.3209 196.45 76.5027C196.361 76.6846 196.235 76.846 196.08 76.9767C195.925 77.1075 195.745 77.2048 195.551 77.2626L194.888 77.4553L194.914 77.6334C194.969 77.9887 194.89 78.3515 194.694 78.6527C194.498 78.954 194.198 79.1726 193.851 79.267L193.191 79.439L184.102 76.4439C183.25 76.1608 182.465 75.7038 181.799 75.1019L178.781 73.5159C178.623 73.4312 178.501 73.2929 178.436 73.1259C178.372 72.959 178.369 72.7745 178.429 72.6058L181.227 64.5538C181.291 64.3695 181.424 64.2172 181.598 64.1295C181.772 64.0417 181.974 64.0255 182.16 64.0841Z" fill="#1EC28B"/>
<path d="M128.174 100.141L128.897 96.5643L132.256 95.1308C132.342 95.0941 132.417 95.0341 132.47 94.9575C132.524 94.8809 132.556 94.7908 132.561 94.6974C132.566 94.6039 132.545 94.5109 132.5 94.4288C132.455 94.3467 132.388 94.2789 132.306 94.2329L129.123 92.4407L128.797 88.8063C128.789 88.713 128.755 88.6238 128.698 88.549C128.642 88.4741 128.566 88.4165 128.478 88.3827C128.391 88.349 128.295 88.3403 128.203 88.3578C128.111 88.3753 128.026 88.4183 127.957 88.4818L125.27 90.9511L121.708 90.1385C121.617 90.1179 121.521 90.1232 121.433 90.1537C121.344 90.1842 121.266 90.2388 121.207 90.3113C121.148 90.3839 121.11 90.4714 121.098 90.5642C121.086 90.6569 121.1 90.7512 121.139 90.8364L122.66 94.1536L120.785 97.2865C120.737 97.3668 120.712 97.4589 120.714 97.5525C120.715 97.646 120.743 97.7372 120.794 97.8157C120.845 97.8943 120.917 97.9571 121.001 97.997C121.086 98.0369 121.18 98.0524 121.273 98.0417L124.902 97.6232L127.305 100.372C127.366 100.442 127.446 100.494 127.536 100.521C127.625 100.548 127.721 100.55 127.811 100.526C127.902 100.502 127.983 100.453 128.048 100.385C128.112 100.317 128.156 100.233 128.174 100.141Z" fill="#F7CC7F"/>
<path d="M84.3298 188.002C84.3298 188.002 79.8509 191.226 79.1461 192.189C78.1299 193.575 86.7324 196.166 85.7943 194.544C85.5781 194.17 84.9589 192.915 84.932 192.792C84.7879 192.13 86.6127 190.352 86.6127 190.352L84.3298 188.002Z" fill="#F7A491"/>
<path d="M88.1213 197.259L85.0799 192.967C85.0799 192.967 83.1818 192.526 81.2324 190.336C81.2324 190.336 79.4809 191.004 78.4036 192.451C80.0166 194.123 81.7451 195.679 83.5763 197.109C84.8911 198.203 86.391 199.054 88.0052 199.621C90.5751 200.489 88.1213 197.259 88.1213 197.259Z" fill="#F7CC7F"/>
<path d="M46.9029 129.232C46.9029 129.232 47.4538 129.72 47.648 129.867C47.8764 130.04 48.5995 130.508 48.5995 130.508C48.5995 130.508 51.2133 131.993 51.3013 131.798C51.3892 131.603 51.3855 131.039 51.2573 130.891C51.129 130.744 50.7516 130.59 50.6222 130.441C50.4927 130.292 50.4487 129.995 50.6148 129.831C50.7809 129.668 51.675 130.153 51.675 130.153C51.675 130.153 52.3981 130.555 52.701 131.039C53.749 132.719 53.4339 132.816 53.5707 133.029C53.7368 133.28 57.4023 134.942 57.4023 134.942C57.4023 134.942 68.3634 139.494 68.9534 139.741H68.9619C69.0413 140.249 68.7701 140.717 68.6297 141.164C68.3683 142.728 67.8968 142.831 67.5463 144.336C65.8656 143.482 54.2327 137.083 53.0455 136.415C53.0455 136.415 51.2732 136.114 50.1653 135.887C49.0575 135.66 48.0889 134.961 47.7897 134.85C47.0323 134.508 46.3187 134.076 45.6644 133.564C44.7251 132.832 45.938 133.11 45.938 133.11C45.938 133.11 47.9106 134.156 47.9619 133.99C48.0022 133.868 46.8919 133.353 45.8451 132.56C45.5752 132.355 45.3102 132.153 45.0683 131.965C44.4332 131.477 44.5443 130.955 45.2894 131.368C45.6289 131.553 45.9554 131.76 46.2665 131.989C46.5719 132.233 46.9286 132.355 47.2144 132.52C47.7836 132.846 48.1915 133.091 48.1915 133.06C48.1915 133.03 48.3479 133.008 48.0694 132.784C47.7347 132.513 46.898 132.089 46.4339 131.654C46.1713 131.41 45.5911 130.922 45.5911 130.922C45.5911 130.922 44.846 130.032 44.8827 129.974C45.0793 129.654 45.756 130.125 46.0699 130.505C46.3923 130.649 46.9896 131.174 46.9896 131.174C46.9896 131.174 48.4273 131.976 48.5384 131.784C48.5848 131.701 47.7591 131.106 47.0373 130.401C46.3679 129.745 45.7951 128.977 45.9013 128.831C46.0858 128.581 46.9029 129.232 46.9029 129.232Z" fill="#F8A492"/>
<path d="M77.48 154.862L78.1884 158.361L95.9956 174.539L83.25 187.424L86.6908 190.936C86.6908 190.936 105.517 177.129 106.196 175.32C107.241 172.534 92.7063 154.086 92.7063 154.086L77.48 154.862Z" fill="#B75742"/>
<path d="M65.1326 197.176C65.1326 197.176 61.5392 201.08 60.8344 202.049C59.8182 203.435 67.4045 205.481 66.4664 203.858C66.2502 203.485 65.6309 202.228 65.6041 202.105C65.4599 201.445 67.2848 199.665 67.2848 199.665L65.1326 197.176Z" fill="#F7A491"/>
<path d="M70.4654 203.74L65.521 201.934C65.521 201.934 63.6522 202.788 60.8026 202.088C60.8026 202.088 59.7974 203.498 59.7339 205.3C59.7339 205.3 69.1059 206.495 71.7137 205.749C74.3214 205.004 70.4654 203.74 70.4654 203.74Z" fill="#F7CC7F"/>
<path d="M78.0895 156.483L78.8895 178.559L63.0891 197.91L67.3641 200.247C67.3641 200.247 84.8428 185.263 86.7628 181.093C87.9525 178.504 91.9576 155.107 91.9576 155.107L78.0895 156.483Z" fill="#F47458"/>
<path d="M92.4536 154.672C91.0049 151.407 91.1723 128.001 85.5354 122.519C83.553 122.854 82.1386 123.041 81.8076 123.129C81.5132 125.539 81.1895 134.387 80.9905 142.496C80.8585 147.897 80.9904 153.563 80.3297 156.549C79.9156 158.4 93.7764 157.655 92.4536 154.672Z" fill="#FAE0B2"/>
<path d="M77.1943 124.336C75.6064 124.702 74.4473 124.946 72.3733 128.01C70.3885 130.938 65.9791 137.892 65.9791 137.892L54.3695 132.736L53.8259 138.61C53.8259 138.61 66.9624 145.434 68.8153 144.814C70.6682 144.194 75.88 136.591 76.266 136.078C76.3576 135.956 75.8287 144.204 75.8287 145.522C75.8287 146.839 73.3114 158.31 73.3114 158.31C73.3114 158.31 79.7007 159.881 80.9477 157.027C84.772 148.279 81.837 123.111 81.837 123.111C81.837 123.111 78.3351 124.074 77.1943 124.336Z" fill="#1EC28B"/>
<path d="M101.047 99.2861C100.559 98.8786 100.346 97.9001 100.266 97.2706L100.048 96.4374C100.246 96.3556 104.119 95.8054 105.287 95.7749C105.401 96.1409 105.457 96.4569 105.42 96.6557C105.247 97.6086 104.028 103.799 104.028 103.799L100.693 103.865C100.693 103.865 101.419 100.195 101.047 99.2861Z" fill="#F7A491"/>
<path d="M86.8435 123.889C86.8435 123.889 89.1325 130.392 91.0147 129.455C92.8969 128.518 103.473 117.743 103.581 117.226C103.688 116.709 104.419 103.483 104.419 103.483L100.234 102.651L97.8278 113.478C97.8278 113.478 90.0864 120.87 88.5181 121.599C88.0663 121.806 87.6752 122.125 87.382 122.526C87.0889 122.926 86.9035 123.396 86.8435 123.889Z" fill="#1EC28B"/>
<path d="M93.0191 156.237C94.2857 156.237 94.7535 156.061 95.5975 155.809C95.5975 155.809 93.1852 142.229 91.783 128.762C91.2285 123.443 90.7143 121.262 88.5169 121.647C87.8818 121.758 86.1608 122.414 85.5366 122.519C91.0575 138.122 91.077 150.132 91.8587 153.615C92.2508 155.363 92.5916 156.248 93.0191 156.237Z" fill="#1EC28B"/>
<path d="M84.9541 120.161L85.5318 122.518C85.5318 122.518 85.6637 124.572 84.7098 124.756C83.5604 124.978 81.8504 123.259 81.8504 123.259L80.8611 116.61L84.9541 120.161Z" fill="#F7A491"/>
<path d="M84.9541 120.161L85.5318 122.518C85.5318 122.518 85.6637 124.572 84.7098 124.756C83.5604 124.978 81.8504 123.259 81.8504 123.259L80.8611 116.61L84.9541 120.161Z" fill="#F7A491"/>
<path d="M80.8708 116.642L84.9541 120.161L85.3853 121.922C83.8255 121.547 81.6 119.832 80.8708 116.642Z" fill="#F47458"/>
<path d="M84.9676 110.525C85.9545 110.525 86.8437 111.205 87.1906 112.19C87.5833 113.302 87.8812 114.444 88.081 115.606C88.5134 118.162 87.0562 120.503 85.7872 120.69C84.5181 120.876 81.4987 120.037 80.8294 116.42C80.5436 114.868 80.1674 112.832 81.4401 111.762C82.4392 110.922 83.8329 110.532 84.9676 110.525Z" fill="#F7A491"/>
<path d="M81.2421 119.173C81.2421 119.173 76.7704 115.192 76.5762 112.084C76.382 108.975 79.2548 107.309 81.7136 107.222C82.719 107.183 83.7258 107.235 84.7219 107.377C87.1856 107.687 88.7807 108.778 88.2189 110.793C87.4653 113.499 82.356 111.216 81.308 112.056C80.4457 112.75 81.8443 114.417 81.0064 115.052C80.2185 115.65 80.6204 115.447 80.8842 116.584C81.06 117.439 81.1795 118.303 81.2421 119.173Z" fill="#184655"/>
<path d="M79.5151 115.567C79.625 116.312 80.0819 116.863 80.5326 116.795C80.9833 116.728 81.2654 116.071 81.1506 115.331C81.0358 114.592 80.5839 114.036 80.1319 114.103C79.68 114.17 79.4076 114.823 79.5151 115.567Z" fill="#F7A491"/>
<path d="M101.273 96.4276C101.837 96.7874 102.329 97.2497 102.722 97.7904C102.722 97.7904 104.608 96.5838 104.542 96.2044C104.454 95.6981 102.527 96.6387 102.527 96.6387L101.273 96.4276Z" fill="#F47458"/>
<path d="M52.6557 71.4237L103.566 97.6061C106.306 99.0152 109.77 97.7464 111.303 94.7733L124.303 69.5522C125.836 66.5791 124.858 63.0264 122.118 61.6222L71.2092 35.4337C68.4695 34.0258 65.0055 35.2934 63.4726 38.2678L50.4705 63.4876C48.9377 66.462 49.916 70.0146 52.6557 71.4237Z" fill="#D7F4E6"/>
<path d="M54.7037 55.2649L50.76 62.9164L111.594 94.1978L115.537 86.5463L54.7037 55.2649Z" fill="#355389"/>
<path d="M83.6158 45.9426L70.209 39.0339L66.3723 46.4619L79.7791 53.3706L83.6158 45.9426Z" fill="#1EC28B"/>
<path d="M101.256 96.3874C101.168 96.1434 100.994 95.814 101.079 95.6834C101.623 94.8551 101.038 93.9547 100.642 94.6586C100.414 95.0686 100.012 95.9689 100.046 96.4374C100.07 96.7766 100.412 98.0698 100.412 98.0698C100.412 98.0698 101.762 97.7428 101.256 96.3874Z" fill="#F7A491"/>
<path d="M254.626 183.514C254.626 183.514 254.314 187.418 254.568 188.679C254.703 189.357 255.462 190.753 255.114 191.392C254.766 192.032 254.369 192.19 254.369 192.19L245.355 192.333C244.866 192.34 245.187 192.031 245.583 191.745C246.232 191.277 246.754 190.967 248.825 189.983C248.96 189.919 249.451 189.617 249.628 189.506C250.108 189.194 250.542 188.818 250.918 188.388C251.566 187.679 251.622 184.24 251.622 184.24L254.626 183.514Z" fill="#F7A491"/>
<path d="M247.584 131.698C247.584 131.698 243.709 129.79 244.454 133.939C245.199 138.088 250.877 184.752 250.877 184.752L256.193 185.046C256.193 185.046 256.873 169.489 256.724 167.255C256.575 165.021 255.694 161.565 255.694 161.565L255.243 147.763L250.227 130.722L247.584 131.698Z" fill="#355389"/>
<path d="M249.63 189.505C252.014 190.106 253.776 189.698 254.76 189.307C255.014 190.015 255.351 190.903 255.172 191.414C254.954 192.041 254.668 192.321 254.393 192.327C252.215 192.383 246.39 192.327 244.729 192.344C244.678 192.345 244.627 192.332 244.583 192.305C244.539 192.278 244.504 192.239 244.482 192.193C244.46 192.147 244.451 192.095 244.458 192.044C244.465 191.993 244.486 191.945 244.519 191.906C244.933 191.418 249.452 189.612 249.63 189.505Z" fill="#3C8F7C"/>
<path d="M244.452 103.655C244.452 103.655 241.176 97.3585 240.665 95.0478C240.155 92.7371 238.397 81.0971 238.545 80.3468C238.693 79.5965 241.476 77.7933 241.133 77.1565C240.79 76.5196 238.138 76.5184 237.531 76.5733C236.924 76.6282 235.699 76.9808 235.182 77.4115C234.666 77.8421 235.772 91.7904 236.102 94.794C236.432 97.7977 240.499 107.045 240.499 107.045L244.452 103.655Z" fill="#F7A491"/>
<path d="M269.976 152.722C269.976 152.722 272.678 149.892 273.28 148.748C273.601 148.138 273.891 146.574 274.566 146.298C275.242 146.021 275.648 146.146 275.648 146.146L282.739 151.708C283.126 152.012 282.678 152.049 282.19 152.022C281.392 151.977 280.789 151.889 278.562 151.35C278.416 151.314 277.841 151.243 277.637 151.214C277.067 151.155 276.492 151.174 275.927 151.271C274.978 151.414 272.768 154.045 272.768 154.045L269.976 152.722Z" fill="#F7A491"/>
<path d="M277.631 151.214C276.158 149.247 274.532 148.456 273.519 148.139C273.764 147.428 274.041 146.501 274.496 146.216C275.062 145.867 275.452 145.939 275.67 146.107C277.396 147.433 281.915 151.063 283.219 152.091C283.259 152.123 283.29 152.165 283.307 152.214C283.324 152.262 283.327 152.314 283.315 152.364C283.303 152.414 283.277 152.46 283.24 152.495C283.203 152.531 283.157 152.555 283.106 152.565C282.492 152.681 277.841 151.243 277.631 151.214Z" fill="#3C8F7C"/>
<path d="M270.039 101.737C268.358 98.2137 264.631 96.2739 261.022 97.2133C259.727 95.4626 257.724 94.2377 255.64 93.9425C251.529 93.3605 246.224 95.3528 246.765 99.6386C245.467 102.637 245.788 106.768 248.379 108.789C247.902 112.729 251.858 116.231 256.54 115.754C258.425 118.351 261.7 119.875 264.763 119.282C265.496 119.139 266.615 118.872 266.806 118.905C266.562 118.878 272.146 122.528 275.995 116.028C279.922 109.401 276.055 101.992 270.039 101.737Z" fill="#184655"/>
<path d="M246.021 133.202C246.021 133.202 254.711 129.343 254.848 129.786C255.937 133.291 259.327 132.16 261.338 138.333C262.181 140.919 263.048 158.114 263.048 158.114C263.048 158.114 266.474 155.274 271.371 150.306C271.746 149.926 275.427 153.422 275.427 153.422C265.708 166.539 261.515 167.223 259.893 166.488C256.509 164.956 249.365 143.512 249.377 143.515C248.517 141.847 246.021 133.202 246.021 133.202Z" fill="#466EB6"/>
<path d="M260.427 108.978C260.427 108.978 272.987 108.962 275.676 108.807C278.109 108.667 287.768 108.912 288.135 108.868C288.501 108.824 291.008 104.598 291.423 105.057C291.838 105.515 290.034 107.15 290.592 107.576C291.151 108.002 297.14 107.048 297.066 107.491C296.917 108.318 293.422 108.213 293.426 108.613C293.43 109.013 297.084 108.388 297.335 109.052C297.585 109.716 293.819 109.322 293.67 109.618C293.521 109.915 297.161 110.456 296.789 111.074C296.586 111.408 293.563 110.514 293.578 110.97C293.592 111.426 295.798 112.467 295.532 112.831C295.266 113.194 293.8 111.714 292.521 111.696C291.242 111.678 290.322 111.01 288.281 111.574C287.273 111.85 279.571 112.794 273.064 113.345C266.392 113.915 260.924 114.096 260.924 114.096L260.427 108.978Z" fill="#F7A491"/>
<path d="M241.802 117.852C241.636 115.838 242.033 114.286 242.124 113.617C241.513 111.525 240.216 107.062 239.749 106.185C239.749 106.185 241.937 101.987 244.175 102.016C244.175 102.016 246.461 107.164 248.228 108.083C248.254 108.083 248.854 108.351 249.118 108.349C250.828 108.337 256.788 108.157 257.901 108.136L257.274 116.587C252.958 125.05 254.123 129.483 255.767 131.126C256.541 131.898 244.983 135.03 244.452 133.939C243.824 132.649 242.14 121.918 241.802 117.852Z" fill="#1EC28B"/>
<path d="M254.871 108.451C255.97 107.926 263.931 108.188 263.931 108.188C263.931 108.188 265.044 113.726 264.145 115.057C264.145 115.057 257.028 116.115 257.229 116.698L254.871 108.451Z" fill="#1EC28B"/>
<path d="M252.785 104.893C252.785 104.893 252.644 107.913 252.785 109.17C252.925 110.428 251.493 113.377 248.825 113.428C246.156 113.479 248.433 110.599 248.667 109.361C248.902 108.122 249.18 103.278 249.18 103.278L252.785 104.893Z" fill="#F7A491"/>
<path d="M249.181 103.278C249.181 103.278 249.117 104.403 249.024 105.707C249.864 106.71 251.159 107.222 252.731 106.612C252.748 105.676 252.784 104.893 252.784 104.893L249.181 103.278Z" fill="#F47458"/>
<path d="M253.005 95.892C254 96.2445 254.837 96.9401 255.364 97.8537C256.219 99.3629 256.57 103.661 253.311 105.432C250.052 107.204 247.814 104.227 247.967 101.484C248.12 98.7419 248.955 95.1307 253.005 95.892Z" fill="#F7A491"/>
<path d="M247.311 100.58C247.532 101.26 248.032 101.707 248.429 101.578C248.826 101.45 248.967 100.795 248.746 100.114C248.525 99.4337 248.026 98.9896 247.629 99.1177C247.232 99.2458 247.095 99.9022 247.311 100.58Z" fill="#F7A491"/>
<path d="M252.551 95.77C252.551 95.77 254.205 100.284 255.898 100.799C257.591 101.314 257.412 103.513 257.412 103.513C257.412 103.513 257.726 98.4162 256.191 97.1364C254.656 95.8566 252.551 95.77 252.551 95.77Z" fill="#184655"/>
<path d="M255.156 101.666C254.882 102.363 255.04 103.078 255.512 103.264C255.983 103.451 256.588 103.036 256.863 102.34C257.138 101.643 256.985 100.928 256.509 100.743C256.032 100.557 255.428 100.97 255.156 101.666Z" fill="#F7A491"/>
<path d="M234.712 78.4851C234.712 78.4851 238.392 78.6461 238.825 78.6461C239.257 78.6461 240.514 77.348 240.514 77.348L234.712 78.4851Z" fill="#F47458"/>
<path d="M238.203 78.3126C245.899 76.5801 250.733 68.9434 248.998 61.2556C247.264 53.5678 239.618 48.7401 231.921 50.4726C224.224 52.2051 219.391 59.8418 221.126 67.5296C222.86 75.2175 230.506 80.0452 238.203 78.3126Z" fill="#FAE0B2"/>
<path d="M244.874 57.4974C246.236 59.4362 246.991 61.7346 247.044 64.102C247.097 66.4694 246.447 68.7994 245.174 70.7974C243.902 72.7955 242.065 74.3718 239.896 75.3271C237.726 76.2824 235.322 76.5737 232.987 76.1642C230.652 75.7548 228.491 74.663 226.777 73.0268C225.063 71.3906 223.874 69.2836 223.359 66.9721C222.844 64.6607 223.027 62.2486 223.884 60.041C224.742 57.8333 226.235 55.9292 228.176 54.5694C229.465 53.6662 230.919 53.0255 232.456 52.6839C233.993 52.3423 235.582 52.3064 237.133 52.5783C238.683 52.8502 240.165 53.4245 241.493 54.2686C242.822 55.1126 243.971 56.2098 244.874 57.4974Z" fill="#F7CC7F"/>
<path d="M238.825 78.6461L240.343 77.2821C240.343 77.2821 239.626 76.4281 239.924 76.261C240.413 75.9938 241.238 77.0284 241.165 77.2797C241.092 77.531 240.199 78.3411 240.199 78.3411L238.825 78.6461Z" fill="#F7A491"/>
</svg>
