<svg width="271" height="167" viewBox="0 0 271 167" fill="none" xmlns="http://www.w3.org/2000/svg">
<path d="M270.005 109.775C270.024 102.412 268.404 95.1521 265.283 88.6075C262.161 82.0628 257.628 76.4257 252.068 72.1714C252.222 70.5809 252.3 68.9828 252.304 67.3836C252.304 42.095 233.595 21.6019 210.529 21.6019C203.425 21.5937 196.439 23.5745 190.253 27.3514C173.921 15.7351 152.602 8.70508 129.279 8.70508C91.3422 8.70508 58.6873 27.3131 44.2055 53.997C43.4007 53.946 42.5912 53.9179 41.7746 53.9179C18.7066 53.9179 8.15699e-05 74.4187 8.15699e-05 99.7073C-0.0160872 108.64 2.37179 117.384 6.87281 124.876C6.87281 147.629 26.7428 166.074 51.2434 166.074H228.995C248.24 166.074 263.84 151.59 263.84 133.725C267.888 126.503 270.02 118.218 270.005 109.775Z" fill="#EAF9F2"/>
<path d="M162.316 120.075C167.532 119.754 174.004 115.93 179.036 114.239C184.991 112.243 190.97 110.322 196.973 108.477C217.869 102.051 238.99 96.5749 260.335 92.0498C262.327 91.6263 264.322 91.2131 266.321 90.8101C263.208 83.5408 258.385 77.2811 252.334 72.6561C252.489 71.0647 252.568 69.4658 252.57 67.8657C252.57 42.5771 233.871 22.0763 210.796 22.0763C203.692 22.0682 196.707 24.0499 190.522 27.8284C174.19 16.2171 152.873 9.1897 129.551 9.1897C96.4094 9.1897 67.316 23.3798 50.8304 44.7478L128.309 58.8945L175.828 67.5672C121.656 69.3145 67.316 71.0516 13.2995 66.9499C6.16902 74.4066 1.65594 84.3082 0.53153 94.9625C-0.592883 105.617 1.74116 116.363 7.13478 125.363V125.363C7.13478 126.279 7.17019 127.187 7.23391 128.087C8.60987 128.513 9.93863 128.927 11.1305 129.197C30.2649 133.566 49.5221 137.222 68.902 140.165C54.6208 149.682 37.2289 151.029 20.7551 155.06C28.7324 162.176 39.5655 166.538 51.503 166.538H229.25C248.497 166.538 264.097 152.057 264.097 134.191C266.986 129.044 268.91 123.334 269.762 117.384C234.147 121.101 198.089 117.874 162.316 120.075Z" fill="#D7F4E6"/>
<path d="M209.725 0.136608C209.725 0.136608 189.854 -1.15919 192.191 13.8905C192.191 13.8905 191.719 16.551 193.956 17.7575C193.956 17.7575 193.992 16.6428 195.996 17.0229C196.709 17.1507 197.434 17.1883 198.155 17.1351C199.13 17.0624 200.056 16.6487 200.794 15.9566V15.9566C200.794 15.9566 206.38 13.462 208.552 3.59549C208.552 3.59549 210.159 1.44262 210.095 0.889094L206.741 2.43742C206.741 2.43742 207.888 5.05199 206.977 7.22527C206.977 7.22527 206.869 2.53181 206.224 2.63384C206.095 2.65679 204.483 3.53937 204.483 3.53937C204.483 3.53937 206.453 8.09254 204.966 11.4035C204.966 11.4035 205.531 5.79172 203.867 3.86842L201.506 5.35809C201.506 5.35809 203.81 10.0618 202.248 13.9007C202.248 13.9007 202.649 8.01347 201.009 5.7203L198.87 7.52371C198.87 7.52371 201.034 12.1611 199.715 15.3445C199.715 15.3445 199.543 8.49047 198.408 7.97266C198.408 7.97266 196.536 9.75821 196.25 10.4877C196.25 10.4877 197.733 13.8548 196.812 15.6301C196.812 15.6301 196.248 11.0642 195.786 11.0387C195.786 11.0387 193.921 14.064 193.727 16.1403C193.727 16.1403 193.808 13.0564 195.335 10.753C195.335 10.753 193.532 11.0872 192.479 12.3498C192.479 12.3498 192.769 10.2123 195.795 10.026C195.795 10.026 197.336 7.73033 197.747 7.59004C197.747 7.59004 194.74 7.31965 192.916 8.19202C192.916 8.19202 194.52 6.17434 198.299 7.09263L200.411 5.228C200.411 5.228 196.451 4.64387 194.771 5.28922C194.771 5.28922 196.704 3.50366 200.98 4.80456L203.279 3.32C203.279 3.32 199.902 2.53436 197.891 2.80984C197.891 2.80984 200.015 1.57271 203.954 2.91443L205.606 2.11603C205.606 2.11603 203.133 1.59056 202.408 1.50639C201.684 1.42221 201.646 1.20794 201.646 1.20794C203.213 0.925532 204.822 1.11892 206.293 1.76657C206.293 1.76657 209.786 0.373832 209.725 0.136608Z" fill="#D7F4E6"/>
<path d="M184.91 3.96534C184.91 3.96534 175.942 3.37866 176.992 10.1791C176.992 10.1791 176.782 11.3831 177.787 11.9289C177.787 11.9289 177.804 11.4188 178.71 11.5948C179.032 11.6533 179.359 11.6705 179.685 11.6458C180.125 11.6134 180.544 11.4262 180.877 11.1127V11.1127C180.877 11.1127 183.402 9.98777 184.384 5.52898C184.384 5.52898 185.108 4.55458 185.08 4.3046L183.565 5.00351C183.565 5.00351 184.084 6.18708 183.676 7.16914C183.676 7.16914 183.626 5.04688 183.336 5.0979C183.277 5.0979 182.548 5.50602 182.548 5.50602C182.548 5.50602 183.44 7.56451 182.767 9.06183C182.767 9.06183 183.022 6.52634 182.269 5.65652L181.202 6.32993C181.202 6.32993 182.245 8.45474 181.537 10.1893C181.537 10.1893 181.719 7.5288 180.978 6.49318L180.013 7.31709C180.013 7.31709 180.99 9.41384 180.395 10.8499C180.395 10.8499 180.317 7.75327 179.803 7.52115C179.803 7.52115 178.958 8.3272 178.828 8.65881C178.828 8.65881 179.498 10.1893 179.083 10.98C179.083 10.98 178.828 8.91644 178.611 8.90879C178.611 8.90879 177.771 10.276 177.681 11.2045C177.723 10.338 177.974 9.49831 178.408 8.76849C177.922 8.86803 177.473 9.11894 177.117 9.49037C177.117 9.49037 177.249 8.52616 178.616 8.43944C178.616 8.43944 179.324 7.40381 179.498 7.34004C179.498 7.34004 178.139 7.21761 177.315 7.61298C177.315 7.61298 178.04 6.6998 179.748 7.10282L180.692 6.26106C180.692 6.26106 178.904 6.00598 178.144 6.28912C178.144 6.28912 179.017 5.48306 180.95 6.06975L181.988 5.39889C181.988 5.39889 180.464 5.04178 179.553 5.17187C179.553 5.17187 180.513 4.61069 182.293 5.21778L183.036 4.85812C183.036 4.85812 181.917 4.61834 181.589 4.58263C181.261 4.54692 181.245 4.44744 181.245 4.44744C181.953 4.32006 182.681 4.40838 183.345 4.70252C183.345 4.70252 184.938 4.07247 184.91 3.96534Z" fill="#D7F4E6"/>
<path fill-rule="evenodd" clip-rule="evenodd" d="M134 45.6667C104.56 45.6667 80.6667 69.5601 80.6667 99.0001C80.6667 128.44 104.56 152.333 134 152.333C163.44 152.333 187.333 128.44 187.333 99.0001C187.333 69.5601 163.44 45.6667 134 45.6667ZM134 141.667C110.48 141.667 91.3333 122.52 91.3333 99.0001C91.3333 75.4801 110.48 56.3334 134 56.3334C157.52 56.3334 176.667 75.4801 176.667 99.0001C176.667 122.52 157.52 141.667 134 141.667ZM123.333 110.573L154.693 79.2134C156.773 77.1334 160.187 77.1334 162.267 79.2134C164.347 81.2934 164.347 84.6534 162.267 86.7334L127.12 121.88C125.04 123.96 121.68 123.96 119.6 121.88L105.787 108.067C103.707 105.987 103.707 102.627 105.787 100.547C106.783 99.5481 108.136 98.9868 109.547 98.9868C110.957 98.9868 112.31 99.5481 113.307 100.547L123.333 110.573Z" fill="#1EC28B"/>
</svg>
