<svg width="379" height="379" viewBox="0 0 379 379" fill="none" xmlns="http://www.w3.org/2000/svg">
<path d="M332.444 158.596H208.238V86.7075H332.444V158.596ZM208.996 157.838H331.686V87.4655H208.996V157.838Z" fill="#D7F4E6"/>
<path d="M306.823 125.04H224.861V127.442H306.823V125.04Z" fill="#EAF9F2"/>
<path d="M312.47 133.999H224.861V136.622H312.47V133.999Z" fill="#EAF9F2"/>
<path d="M312.47 143.065H224.861V145.688H312.47V143.065Z" fill="#EAF9F2"/>
<path d="M253.505 112.025H224.861V118.263H253.505V112.025Z" fill="#EAF9F2"/>
<path d="M332.065 87.0864H208.617V98.5322H332.065V87.0864Z" fill="#D7F4E6"/>
<path d="M322.567 96.8193C322.408 96.6677 324 94.75 326.122 92.5366C328.244 90.3232 330.086 88.6481 330.245 88.7921C330.405 88.9361 328.813 90.8614 326.69 93.0824C324.568 95.3033 322.726 96.9709 322.567 96.8193Z" fill="white"/>
<path d="M330.245 96.8193C330.086 96.9709 328.244 95.3033 326.122 93.0823C324 90.8614 322.408 88.9436 322.567 88.792C322.726 88.6404 324.568 90.308 326.69 92.5366C328.813 94.7651 330.405 96.6677 330.245 96.8193Z" fill="white"/>
<path d="M303.791 164.941H158.028V295.438H303.791V164.941Z" fill="#EAF9F2"/>
<path d="M159.195 133.324H45.01V251.959H159.195V133.324Z" fill="#EAF9F2"/>
<path d="M159.195 133.324H45.01V146.248H159.195V133.324Z" fill="#D7F4E6"/>
<path d="M54.4396 139.654C54.4188 140.122 54.2608 140.575 53.9853 140.954C53.7098 141.334 53.3289 141.624 52.8898 141.79C52.4507 141.955 51.9728 141.987 51.5153 141.883C51.0579 141.779 50.6411 141.543 50.3166 141.204C49.9922 140.865 49.7744 140.439 49.6902 139.977C49.6061 139.516 49.6593 139.04 49.8433 138.608C50.0273 138.177 50.334 137.809 50.7252 137.55C51.1165 137.291 51.5752 137.153 52.0443 137.152C52.693 137.168 53.3091 137.44 53.7579 137.909C54.2067 138.378 54.4518 139.005 54.4396 139.654Z" fill="white"/>
<path d="M64.1648 139.654C64.1455 140.125 63.9881 140.579 63.7122 140.962C63.4364 141.344 63.0543 141.636 62.6135 141.803C62.1726 141.97 61.6925 142.003 61.2329 141.899C60.7732 141.794 60.3544 141.557 60.0285 141.217C59.7025 140.877 59.4839 140.448 59.3997 139.984C59.3155 139.521 59.3696 139.042 59.5552 138.609C59.7407 138.176 60.0496 137.807 60.4433 137.548C60.837 137.289 61.2982 137.151 61.7695 137.152C62.4182 137.168 63.0343 137.44 63.4831 137.909C63.9319 138.378 64.177 139.005 64.1648 139.654Z" fill="white"/>
<path d="M73.8899 139.654C73.8706 140.125 73.7132 140.579 73.4373 140.962C73.1615 141.344 72.7794 141.636 72.3385 141.803C71.8977 141.97 71.4176 142.003 70.958 141.899C70.4983 141.794 70.0795 141.557 69.7536 141.217C69.4276 140.877 69.2089 140.448 69.1248 139.984C69.0406 139.521 69.0947 139.042 69.2803 138.609C69.4658 138.176 69.7747 137.807 70.1684 137.548C70.5621 137.289 71.0233 137.151 71.4946 137.152C72.1433 137.168 72.7594 137.44 73.2082 137.909C73.657 138.378 73.9021 139.005 73.8899 139.654Z" fill="white"/>
<path d="M306.111 343.472C306.111 343.579 253.475 343.67 188.568 343.67C123.66 343.67 71.002 343.579 71.002 343.472C71.002 343.366 123.63 343.275 188.568 343.275C253.506 343.275 306.111 343.374 306.111 343.472Z" fill="#263238"/>
<path d="M254.825 250.678C243.113 242.499 240.46 227.317 240.923 213.665C240.999 211.391 240.748 208.981 241.832 206.987C242.916 204.994 245.448 203.622 247.487 204.577C249.177 205.373 249.913 207.343 250.86 208.973C252.124 211.144 253.977 212.912 256.204 214.074C257.652 214.832 259.448 215.287 260.881 214.499C262.852 213.415 263.079 210.709 263.064 208.435C263.064 204.205 263.039 199.981 262.988 195.761C262.852 193.495 263.082 191.223 263.67 189.03C264.375 186.877 265.944 184.884 268.09 184.277C270.235 183.671 272.91 184.922 273.396 187.135C273.479 188.073 273.502 189.014 273.464 189.955C273.524 190.902 273.964 191.941 274.851 192.229C275.738 192.517 276.663 191.857 277.345 191.19C279.679 188.916 281.271 185.953 282.749 183.027C284.227 180.101 285.675 177.092 287.798 174.598C289.92 172.104 292.853 170.126 296.136 169.936C299.418 169.747 302.836 171.763 303.655 174.947C304.474 178.13 302.616 181.382 300.623 183.967C297.615 187.803 294.069 191.186 290.094 194.01C289.318 194.434 288.699 195.095 288.328 195.898C287.835 197.414 289.268 198.93 290.761 199.407C292.452 199.968 294.286 199.794 296.067 200.006C297.849 200.218 299.744 200.991 300.418 202.659C301.343 204.978 299.403 207.404 297.5 208.996C293.68 212.179 289.342 214.684 284.675 216.402C283.007 217.008 281.256 217.546 279.907 218.713C278.557 219.881 277.754 221.92 278.565 223.519C279.376 225.119 281.461 225.626 283.212 225.3C284.963 224.975 286.517 224.035 288.184 223.405C291.299 222.231 295.317 222.443 297.28 225.134C297.888 226.061 298.273 227.116 298.405 228.217C298.536 229.318 298.411 230.434 298.038 231.478C297.279 233.556 296.112 235.461 294.604 237.08C289.64 243.011 283.189 247.518 275.912 250.14C268.688 252.642 261.995 253.324 254.817 250.693" fill="#1EC28B"/>
<path d="M300.32 171.808C300.32 171.808 300.252 171.884 300.1 172.021L299.425 172.619C298.834 173.15 297.962 173.923 296.863 174.946C293.747 177.84 290.853 180.964 288.207 184.293C286.517 186.392 284.766 188.772 282.901 191.357C281.036 193.942 279.111 196.731 277.201 199.695C275.164 202.821 273.299 206.054 271.614 209.382C270.735 211.118 269.962 212.93 269.166 214.779L266.816 220.426C263.719 227.54 261.021 234.82 258.736 242.234C256.895 248.3 255.626 254.525 254.946 260.828C254.505 265.081 254.434 269.365 254.734 273.63C254.855 275.146 254.969 276.306 255.075 277.095C255.12 277.474 255.151 277.777 255.181 277.997V278.307C255.148 278.209 255.125 278.107 255.113 278.004C255.075 277.784 255.029 277.489 254.969 277.11C254.832 276.352 254.688 275.154 254.552 273.638C254.186 269.365 254.211 265.066 254.627 260.798C255.266 254.468 256.507 248.214 258.334 242.12C260.6 234.686 263.29 227.387 266.392 220.26L268.802 214.635C269.598 212.793 270.379 210.967 271.266 209.223C272.962 205.885 274.843 202.644 276.898 199.513C278.838 196.481 280.794 193.737 282.636 191.175C284.478 188.613 286.259 186.218 287.942 184.126C290.615 180.806 293.548 177.704 296.712 174.848C297.833 173.84 298.728 173.082 299.334 172.574L300.039 172.005C300.126 171.93 300.22 171.864 300.32 171.808Z" fill="#263238"/>
<path d="M271.364 209.208C271.257 208.896 271.184 208.573 271.144 208.246C271.023 207.616 270.887 206.73 270.727 205.577C270.402 203.303 270.068 200.188 269.712 196.739C269.356 193.29 268.954 190.167 268.62 187.916C268.446 186.794 268.294 185.892 268.188 185.263C268.105 184.941 268.062 184.61 268.059 184.278C268.19 184.581 268.284 184.899 268.34 185.225C268.507 185.847 268.696 186.741 268.908 187.871C269.34 190.145 269.765 193.237 270.121 196.694C270.477 200.15 270.781 203.182 271.016 205.539C271.129 206.601 271.228 207.503 271.304 208.223C271.362 208.548 271.383 208.878 271.364 209.208Z" fill="#263238"/>
<path d="M300.532 203.766C300.163 203.846 299.787 203.892 299.41 203.902C298.652 203.97 297.576 204.061 296.242 204.213C293.573 204.501 289.905 205.032 285.88 205.79C281.855 206.548 278.239 207.404 275.639 208.064C274.343 208.397 273.297 208.7 272.607 208.905C272.239 209.036 271.858 209.127 271.47 209.178C271.821 209.002 272.186 208.857 272.562 208.746C273.274 208.496 274.305 208.147 275.594 207.775C278.178 207.017 281.794 206.115 285.834 205.342C289.257 204.688 292.71 204.207 296.181 203.902C297.523 203.788 298.607 203.743 299.365 203.728C299.754 203.701 300.145 203.714 300.532 203.766Z" fill="#263238"/>
<path d="M258.705 241.59C258.625 241.48 258.558 241.36 258.508 241.234L258.008 240.18C257.576 239.263 256.992 237.906 256.295 236.246C254.885 232.911 253.089 228.241 251.178 223.057C249.268 217.872 247.51 213.203 246.176 209.83C245.524 208.192 244.986 206.851 244.584 205.85L244.159 204.766C244.101 204.641 244.06 204.509 244.038 204.372C244.119 204.482 244.185 204.602 244.235 204.728L244.735 205.782C245.16 206.699 245.751 208.056 246.449 209.716C247.858 213.051 249.655 217.72 251.565 222.905C253.475 228.09 255.234 232.759 256.568 236.132C257.22 237.77 257.758 239.111 258.152 240.112C258.326 240.544 258.47 240.87 258.584 241.196C258.643 241.321 258.684 241.453 258.705 241.59Z" fill="#263238"/>
<path d="M297.424 229.105C297.303 229.175 297.173 229.229 297.038 229.265L295.916 229.644L291.77 230.985C288.268 232.122 283.432 233.744 278.126 235.533C272.82 237.322 267.961 238.914 264.436 239.975C262.677 240.513 261.245 240.923 260.252 241.196L259.107 241.491C258.974 241.533 258.837 241.561 258.698 241.575C258.819 241.505 258.949 241.451 259.085 241.415L260.206 241.036L264.353 239.695C267.855 238.558 272.691 236.936 277.997 235.147C283.303 233.358 288.154 231.766 291.679 230.705C293.445 230.167 294.87 229.757 295.87 229.484L297.015 229.189C297.148 229.147 297.285 229.119 297.424 229.105Z" fill="#263238"/>
<path d="M281.627 45.2374L277.724 46.6322L276.048 41.5308C272.971 32.124 263.162 27.1288 254.15 30.3048C245.137 33.4809 240.339 43.7972 243.417 53.204L245.092 58.3054L241.173 59.7077C239.679 60.2873 238.465 61.4204 237.785 62.8717C237.104 64.3229 237.009 65.9805 237.519 67.4999L248.381 100.693C248.607 101.445 248.981 102.144 249.482 102.749C249.983 103.353 250.601 103.851 251.298 104.212C251.995 104.574 252.758 104.791 253.541 104.852C254.324 104.913 255.111 104.816 255.855 104.566L296.31 90.0959C297.824 89.5173 299.055 88.3741 299.743 86.9067C300.432 85.4393 300.524 83.7621 300.001 82.2278L289.132 49.035C288.9 48.285 288.52 47.5892 288.014 46.9892C287.508 46.3892 286.886 45.8973 286.186 45.5429C285.485 45.1885 284.721 44.9788 283.938 44.9263C283.154 44.8738 282.369 44.9796 281.627 45.2374ZM250.792 50.5434C249.962 48.0975 250.111 45.4254 251.208 43.0869C252.304 40.7484 254.263 38.9249 256.674 37.9985C257.865 37.5912 259.125 37.4279 260.38 37.5183C261.635 37.6087 262.859 37.9509 263.979 38.5247C265.099 39.0984 266.091 39.8918 266.898 40.8576C267.705 41.8234 268.308 42.9417 268.673 44.1459L270.341 49.2473L252.46 55.6448L250.792 50.5434ZM273.532 79.9993L276.306 88.4738C276.357 88.6437 276.341 88.8267 276.26 88.9848C276.18 89.1429 276.042 89.2639 275.874 89.3227L271.986 90.7099C271.831 90.7528 271.665 90.7341 271.524 90.6578C271.383 90.5815 271.277 90.4535 271.228 90.3005L268.431 81.864C266.888 81.78 265.409 81.2268 264.189 80.2785C262.97 79.3302 262.07 78.0321 261.609 76.558C260.949 74.6091 261.07 72.4808 261.944 70.6186C262.819 68.7564 264.38 67.3047 266.301 66.5676C267.249 66.2435 268.253 66.1138 269.252 66.186C270.252 66.2582 271.227 66.5309 272.119 66.9878C273.011 67.4447 273.802 68.0766 274.444 68.8456C275.087 69.6147 275.568 70.5053 275.859 71.4642C276.347 72.9617 276.387 74.5689 275.975 76.0889C275.563 77.609 274.717 78.9758 273.539 80.0221L273.532 79.9993Z" fill="#1EC28B"/>
<path d="M277.549 46.5413C277.549 46.6474 270.31 49.3686 261.305 52.6053C252.3 55.8419 244.955 58.4419 244.917 58.3661C244.879 58.2903 252.156 55.5463 261.169 52.3021C270.182 49.0578 277.511 46.4427 277.549 46.5413Z" fill="#263238"/>
<path d="M286.145 47.936C286.178 48.0018 286.206 48.0703 286.228 48.1407C286.289 48.2923 286.357 48.4894 286.448 48.7319C286.645 49.2853 286.918 50.0509 287.259 51.0059L290.17 59.4804C291.383 63.0733 292.831 67.3333 294.438 72.0632C295.196 74.4357 296.09 76.9068 296.924 79.5067C297.37 80.8465 297.563 82.2577 297.492 83.6682C297.428 84.4017 297.219 85.1152 296.878 85.7678C296.514 86.4182 296.028 86.9922 295.446 87.4582C294.275 88.313 292.975 88.9757 291.595 89.4214L287.691 90.8237L280.301 93.4691L267.786 97.9261L259.335 100.897L257.061 101.655L256.454 101.853C256.389 101.881 256.32 101.899 256.25 101.906C256.25 101.906 256.31 101.906 256.439 101.815L257.03 101.58L259.304 100.723L267.71 97.6305L280.202 93.0825L287.578 90.4144L291.481 89.0045C292.822 88.5769 294.084 87.9344 295.218 87.1019C295.76 86.6695 296.213 86.1367 296.552 85.5328C296.873 84.9293 297.067 84.2662 297.121 83.5848C297.191 82.2258 297.006 80.8658 296.575 79.575C295.756 76.9978 294.892 74.5039 294.112 72.1314C292.535 67.3939 291.08 63.1188 289.927 59.5259C288.775 55.9329 287.805 53.045 287.138 51.0135C286.82 50.0205 286.577 49.2474 286.38 48.6865L286.198 48.0801C286.175 48.0341 286.157 47.9858 286.145 47.936Z" fill="#263238"/>
<path d="M264.8 37.4832C264.8 37.4832 264.398 37.2861 263.655 36.9829C262.596 36.5761 261.476 36.3506 260.343 36.3159C258.662 36.2583 256.99 36.5741 255.446 37.2407C253.569 38.0706 251.963 39.4131 250.815 41.114C249.658 42.8101 249.037 44.8144 249.033 46.8673C249.049 48.5498 249.304 50.2215 249.791 51.8322C250.185 53.2117 250.595 54.3108 250.868 55.0764C251.029 55.4653 251.16 55.8656 251.262 56.274C251.046 55.9105 250.866 55.5272 250.724 55.1295C250.413 54.3715 249.966 53.2951 249.526 51.908C248.986 50.2804 248.693 48.5815 248.654 46.8673C248.634 44.7368 249.269 42.6517 250.473 40.8942C251.662 39.1312 253.333 37.7472 255.287 36.9071C256.879 36.2369 258.603 35.9413 260.327 36.043C261.486 36.102 262.624 36.3718 263.685 36.8389C263.969 36.9699 264.243 37.1219 264.504 37.2937C264.612 37.3411 264.712 37.405 264.8 37.4832Z" fill="#263238"/>
<path d="M265.148 67.1436C265.269 67.0703 265.396 67.0069 265.527 66.9541C265.907 66.7829 266.3 66.6434 266.702 66.5372C267.341 66.3486 268 66.2367 268.666 66.2037C269.571 66.155 270.476 66.2918 271.326 66.6054C273.267 67.2876 275.048 69.266 275.927 71.9114C276.349 73.3311 276.349 74.8427 275.927 76.2623C275.46 77.8032 274.622 79.206 273.486 80.348L273.532 80.1433C274.54 82.91 275.639 85.9117 276.776 89.0422L276.844 89.2317L276.655 89.2999L274.919 89.876L271.129 91.1419L270.94 91.2025L270.879 91.013C269.84 87.8749 268.703 84.949 267.847 82.0762L268.014 82.2051C266.532 82.082 265.119 81.5258 263.951 80.6057C262.894 79.7917 262.027 78.757 261.411 77.5737C260.856 76.5243 260.579 75.3497 260.608 74.1627C260.643 72.9495 260.946 71.759 261.495 70.6766C262.044 69.5942 262.826 68.6465 263.784 67.9016C264.178 67.5814 264.621 67.3256 265.095 67.1436C264.667 67.3976 264.252 67.6734 263.852 67.9698C262.8 68.8604 261.993 70.0061 261.51 71.2974C261.095 72.2712 260.901 73.3247 260.942 74.3823C260.983 75.4399 261.257 76.4754 261.745 77.4145C262.351 78.5529 263.196 79.546 264.224 80.3252C265.338 81.1998 266.685 81.727 268.097 81.8412H268.226L268.264 81.9549C269.098 84.7747 270.242 87.7233 271.296 90.8766L271.046 90.7553L274.836 89.4894L276.564 88.9058L276.443 89.1635C275.313 86.033 274.222 83.0237 273.221 80.257V80.1433L273.312 80.0523C274.414 78.9577 275.236 77.6134 275.707 76.1335C276.109 74.7755 276.109 73.3301 275.707 71.9721C274.881 69.4252 273.176 67.4923 271.326 66.8101C270.507 66.4944 269.633 66.3474 268.757 66.378C268.102 66.393 267.451 66.482 266.816 66.6433C265.687 66.9238 265.156 67.1815 265.148 67.1436Z" fill="#263238"/>
<path d="M241.719 286.009L166.002 285.66C161.629 285.636 157.445 283.877 154.368 280.771C151.291 277.664 149.573 273.463 149.591 269.09L150.395 79.2793C150.404 77.113 150.839 74.9697 151.677 72.9719C152.515 70.9741 153.738 69.161 155.277 67.6362C156.816 66.1114 158.64 64.9048 160.646 64.0855C162.651 63.2662 164.798 62.8501 166.965 62.8611L242.674 63.2097C247.046 63.2318 251.231 64.9884 254.31 68.0938C257.388 71.1992 259.108 75.3994 259.092 79.772L258.288 269.575C258.279 271.742 257.844 273.886 257.006 275.885C256.169 277.884 254.946 279.698 253.407 281.224C251.868 282.75 250.044 283.958 248.039 284.779C246.033 285.6 243.886 286.018 241.719 286.009Z" fill="#455A64"/>
<path d="M242.56 69.7362H227.885C227.406 69.7451 226.934 69.8482 226.495 70.0397C226.056 70.2311 225.659 70.5072 225.327 70.8521C224.995 71.197 224.733 71.604 224.559 72.0498C224.384 72.4957 224.298 72.9716 224.307 73.4504V76.111C224.316 76.5894 224.231 77.065 224.056 77.5103C223.881 77.9557 223.62 78.3622 223.287 78.7065C222.955 79.0508 222.558 79.3262 222.119 79.5168C221.68 79.7075 221.208 79.8097 220.73 79.8176L192.123 79.6887C191.155 79.6629 190.237 79.2541 189.57 78.552C188.904 77.8499 188.543 76.912 188.568 75.9442V73.2836C188.592 72.3171 188.232 71.3803 187.568 70.6784C186.903 69.9766 185.987 69.5669 185.02 69.5391H179.858L167.01 69.4785C163.954 69.4603 161.015 70.6537 158.838 72.7976C156.66 74.9414 155.42 77.8608 155.39 80.9167L154.632 266.187C154.625 267.703 154.917 269.206 155.49 270.609C156.064 272.012 156.909 273.289 157.976 274.366C159.043 275.443 160.311 276.299 161.709 276.885C163.107 277.472 164.607 277.778 166.123 277.784L241.681 278.133C243.198 278.14 244.701 277.848 246.105 277.274C247.51 276.7 248.787 275.855 249.865 274.787C250.942 273.719 251.799 272.45 252.386 271.051C252.973 269.652 253.279 268.151 253.286 266.634L254.044 81.3639C254.062 78.2994 252.862 75.3532 250.709 73.1727C248.556 70.9923 245.624 69.7562 242.56 69.7362Z" fill="white"/>
<path d="M232.395 253.415L176.212 253.172C175.628 253.172 175.159 252.535 175.166 251.762L175.227 237.065C175.227 236.307 175.704 235.655 176.288 235.655L232.471 235.913C232.794 235.968 233.084 236.147 233.279 236.411C233.473 236.675 233.559 237.004 233.517 237.33L233.464 252.012C233.464 252.793 232.979 253.422 232.395 253.415Z" fill="#1EC28B"/>
<path d="M187.418 124.199L167.923 124.11L167.907 127.688L187.402 127.776L187.418 124.199Z" fill="#1EC28B"/>
<path d="M244.569 146.165C244.722 146.15 244.872 146.114 245.016 146.059C245.226 145.977 245.408 145.837 245.542 145.656C245.676 145.475 245.757 145.26 245.774 145.036C245.774 143.831 245.774 142.072 245.774 139.813C245.774 138.684 245.774 137.418 245.774 136.023C245.774 135.682 245.774 135.326 245.774 134.969C245.823 134.624 245.748 134.272 245.562 133.977C245.457 133.835 245.322 133.719 245.165 133.639C245.008 133.559 244.835 133.516 244.66 133.514H243.477H232.524L169.125 133.279C168.963 133.276 168.802 133.313 168.657 133.385C168.512 133.458 168.386 133.565 168.291 133.696C168.108 133.993 168.038 134.345 168.094 134.689C168.094 135.447 168.094 136.205 168.094 136.963C168.094 138.479 168.094 139.995 168.094 141.511C168.094 142.269 168.094 143.027 168.094 143.785C168.063 144.138 168.063 144.493 168.094 144.846C168.134 144.998 168.208 145.138 168.31 145.256C168.413 145.374 168.541 145.468 168.685 145.528C168.835 145.588 168.995 145.616 169.155 145.612H173.013L189.849 145.703L218.349 145.877L237.565 146.029L242.787 146.089H244.144C244.455 146.089 244.607 146.089 244.607 146.089H244.144H242.787H237.565H218.349L189.849 145.998L173.013 145.93H169.155C168.943 145.939 168.731 145.903 168.534 145.824C168.334 145.739 168.157 145.609 168.015 145.445C167.873 145.281 167.77 145.086 167.715 144.877C167.671 144.678 167.656 144.473 167.67 144.27V143.709C167.67 142.951 167.67 142.193 167.67 141.435C167.67 139.919 167.67 138.403 167.67 136.887C167.67 136.129 167.67 135.371 167.67 134.613C167.655 134.411 167.655 134.209 167.67 134.007C167.698 133.784 167.784 133.572 167.92 133.393C168.05 133.21 168.224 133.061 168.424 132.96C168.625 132.858 168.847 132.806 169.072 132.809L232.471 133.158L243.424 133.234H244.607C244.815 133.234 245.02 133.284 245.205 133.381C245.39 133.477 245.548 133.616 245.668 133.787C245.881 134.117 245.968 134.513 245.91 134.901C245.91 135.258 245.91 135.614 245.91 135.955C245.91 137.334 245.91 138.6 245.91 139.745C245.91 142.019 245.857 143.762 245.842 144.975C245.824 145.208 245.739 145.431 245.598 145.618C245.457 145.805 245.265 145.947 245.046 146.029C244.903 146.118 244.737 146.165 244.569 146.165Z" fill="#E0E0E0"/>
<path d="M209.435 137.084H173.779V140.427H209.435V137.084Z" fill="#1EC28B"/>
<path opacity="0.2" d="M209.435 137.084H173.779V140.427H209.435V137.084Z" fill="#1EC28B"/>
<path d="M187.286 156.837L167.79 156.749L167.774 160.326L187.269 160.415L187.286 156.837Z" fill="#1EC28B"/>
<path d="M244.076 178.805C244.229 178.786 244.381 178.758 244.531 178.721C244.742 178.654 244.937 178.542 245.102 178.393C245.267 178.244 245.398 178.061 245.486 177.857C245.605 177.551 245.652 177.222 245.622 176.895C245.622 176.531 245.622 176.137 245.622 175.697C245.622 174.818 245.622 173.817 245.622 172.665V167.852C245.658 167.503 245.581 167.152 245.402 166.851C245.215 166.542 244.921 166.313 244.576 166.207C244.199 166.139 243.814 166.119 243.432 166.146H232.524L169.345 165.911C169.005 165.912 168.677 166.036 168.422 166.261C168.167 166.485 168.002 166.795 167.957 167.132C167.957 167.852 167.957 168.648 167.957 169.406C167.957 170.922 167.957 172.438 167.957 173.954C167.957 174.712 167.957 175.47 167.957 176.228C167.929 176.582 167.945 176.938 168.003 177.289C168.098 177.596 168.292 177.863 168.556 178.047C168.836 178.224 169.165 178.309 169.496 178.289H170.55H172.74L189.515 178.373L217.917 178.547L237.064 178.699L242.272 178.759H243.629H244.083H243.629H242.272H237.064H217.917L189.5 178.729L172.725 178.668H169.428C169.018 178.693 168.611 178.584 168.268 178.358C167.923 178.119 167.672 177.768 167.556 177.365C167.488 176.979 167.467 176.587 167.495 176.197C167.495 175.439 167.495 174.681 167.495 173.923C167.495 172.407 167.495 170.891 167.495 169.375C167.495 168.617 167.495 167.859 167.495 167.101C167.55 166.668 167.762 166.269 168.09 165.981C168.418 165.692 168.839 165.532 169.276 165.532L232.456 165.881L243.363 165.964C243.77 165.939 244.177 165.967 244.576 166.048C244.97 166.176 245.302 166.446 245.508 166.806C245.705 167.14 245.789 167.527 245.751 167.912C245.751 168.269 245.751 168.617 245.751 168.966C245.751 170.338 245.751 171.596 245.751 172.756C245.751 173.916 245.751 174.894 245.751 175.788C245.751 176.22 245.751 176.622 245.751 176.993C245.779 177.332 245.724 177.673 245.592 177.986C245.493 178.195 245.351 178.381 245.175 178.53C244.998 178.679 244.791 178.788 244.569 178.85C244.403 178.864 244.236 178.849 244.076 178.805Z" fill="#E0E0E0"/>
<path d="M187.139 190.893L167.643 190.804L167.627 194.382L187.122 194.471L187.139 190.893Z" fill="#1EC28B"/>
<path d="M243.924 212.846C244.078 212.828 244.23 212.801 244.379 212.763C244.59 212.696 244.784 212.585 244.949 212.437C245.113 212.29 245.245 212.109 245.334 211.907C245.453 211.6 245.5 211.271 245.471 210.944C245.471 210.572 245.471 210.186 245.471 209.739C245.471 208.867 245.471 207.859 245.471 206.707V201.893C245.507 201.545 245.43 201.194 245.251 200.893C245.059 200.59 244.767 200.364 244.425 200.256C244.047 200.186 243.663 200.163 243.28 200.188H232.372L169.193 199.953C168.853 199.954 168.525 200.078 168.27 200.302C168.015 200.527 167.85 200.836 167.806 201.173C167.806 201.931 167.806 202.689 167.806 203.447C167.806 204.963 167.806 206.479 167.806 207.995C167.806 208.753 167.806 209.511 167.806 210.269C167.778 210.621 167.793 210.975 167.852 211.323C167.942 211.632 168.138 211.9 168.405 212.081C168.683 212.263 169.013 212.348 169.345 212.323H172.642L189.417 212.414L217.819 212.589L236.966 212.74L242.173 212.801H243.53C243.833 212.801 243.985 212.801 243.985 212.801C243.985 212.801 243.833 212.801 243.53 212.801H242.173H236.966H217.819L189.417 212.718L172.642 212.649H169.345C168.934 212.677 168.527 212.568 168.185 212.339C167.84 212.1 167.588 211.749 167.473 211.346C167.405 210.96 167.384 210.568 167.412 210.178C167.412 209.42 167.412 208.662 167.412 207.904C167.412 206.388 167.412 204.872 167.412 203.356C167.412 202.598 167.412 201.84 167.412 201.044C167.465 200.612 167.675 200.213 168.002 199.924C168.329 199.635 168.749 199.476 169.186 199.475L232.365 199.824L243.273 199.907C243.679 199.882 244.086 199.911 244.485 199.991C244.879 200.119 245.211 200.39 245.418 200.749C245.614 201.083 245.699 201.47 245.66 201.855C245.66 202.212 245.66 202.568 245.66 202.909C245.66 204.281 245.66 205.539 245.66 206.699C245.66 207.859 245.66 208.837 245.66 209.731C245.66 210.163 245.66 210.565 245.66 210.936C245.689 211.275 245.635 211.616 245.501 211.929C245.403 212.138 245.26 212.324 245.084 212.473C244.907 212.622 244.7 212.731 244.478 212.793C244.3 212.854 244.11 212.872 243.924 212.846Z" fill="#E0E0E0"/>
<path d="M208.674 170.669L173.018 170.507L173.003 173.85L208.659 174.012L208.674 170.669Z" fill="#1EC28B"/>
<path opacity="0.2" d="M208.674 170.669L173.018 170.507L173.003 173.85L208.659 174.012L208.674 170.669Z" fill="#1EC28B"/>
<path d="M176.243 206.661C176.22 206.966 176.109 207.258 175.922 207.5C175.736 207.742 175.482 207.924 175.193 208.024C174.904 208.123 174.592 208.135 174.296 208.059C174 207.983 173.733 207.822 173.527 207.595C173.322 207.368 173.188 207.086 173.142 206.784C173.095 206.482 173.139 206.173 173.266 205.895C173.394 205.617 173.601 205.383 173.86 205.221C174.12 205.06 174.421 204.978 174.727 204.986C175.149 205.01 175.545 205.199 175.829 205.512C176.112 205.826 176.261 206.239 176.243 206.661Z" fill="#1EC28B"/>
<path d="M181.071 206.684C181.086 206.898 181.057 207.112 180.985 207.314C180.913 207.516 180.801 207.701 180.655 207.858C180.509 208.014 180.332 208.139 180.136 208.225C179.939 208.31 179.727 208.354 179.513 208.354C179.299 208.354 179.087 208.31 178.891 208.225C178.694 208.139 178.517 208.014 178.371 207.858C178.225 207.701 178.113 207.516 178.041 207.314C177.97 207.112 177.941 206.898 177.955 206.684C177.941 206.47 177.97 206.256 178.041 206.054C178.113 205.852 178.225 205.667 178.371 205.51C178.517 205.354 178.694 205.229 178.891 205.143C179.087 205.058 179.299 205.014 179.513 205.014C179.727 205.014 179.939 205.058 180.136 205.143C180.332 205.229 180.509 205.354 180.655 205.51C180.801 205.667 180.913 205.852 180.985 206.054C181.057 206.256 181.086 206.47 181.071 206.684Z" fill="#1EC28B"/>
<path d="M185.907 206.707C185.884 207.012 185.773 207.303 185.587 207.545C185.4 207.788 185.146 207.97 184.857 208.069C184.568 208.169 184.256 208.181 183.96 208.105C183.664 208.028 183.397 207.867 183.192 207.64C182.987 207.414 182.853 207.132 182.806 206.829C182.76 206.527 182.803 206.218 182.931 205.94C183.058 205.663 183.265 205.428 183.524 205.267C183.784 205.105 184.085 205.023 184.391 205.032C184.812 205.057 185.207 205.247 185.491 205.56C185.774 205.873 185.923 206.285 185.907 206.707Z" fill="#1EC28B"/>
<path d="M190.735 206.729C190.713 207.034 190.602 207.326 190.415 207.568C190.229 207.81 189.975 207.992 189.686 208.092C189.397 208.191 189.085 208.204 188.789 208.127C188.493 208.051 188.226 207.89 188.02 207.663C187.815 207.436 187.681 207.154 187.635 206.852C187.588 206.55 187.632 206.241 187.759 205.963C187.887 205.685 188.093 205.451 188.353 205.29C188.613 205.128 188.914 205.046 189.219 205.054C189.641 205.08 190.036 205.269 190.319 205.583C190.603 205.896 190.752 206.307 190.735 206.729Z" fill="#1EC28B"/>
<path d="M195.564 206.745C195.543 207.05 195.433 207.342 195.247 207.586C195.061 207.829 194.808 208.012 194.519 208.113C194.23 208.213 193.918 208.227 193.621 208.151C193.324 208.076 193.057 207.915 192.851 207.688C192.645 207.462 192.51 207.18 192.463 206.877C192.416 206.575 192.459 206.265 192.587 205.987C192.714 205.709 192.921 205.474 193.181 205.313C193.44 205.151 193.742 205.069 194.048 205.077C194.468 205.102 194.862 205.291 195.145 205.603C195.428 205.914 195.578 206.324 195.564 206.745Z" fill="#1EC28B"/>
<path d="M200.4 206.767C200.379 207.071 200.27 207.362 200.086 207.605C199.902 207.848 199.651 208.031 199.364 208.133C199.077 208.235 198.767 208.25 198.471 208.178C198.175 208.106 197.907 207.949 197.7 207.726C197.492 207.503 197.354 207.225 197.303 206.924C197.252 206.624 197.289 206.316 197.411 206.037C197.533 205.758 197.734 205.52 197.988 205.354C198.243 205.187 198.541 205.099 198.846 205.1C199.273 205.116 199.676 205.3 199.967 205.613C200.259 205.925 200.414 206.34 200.4 206.767Z" fill="#1EC28B"/>
<path d="M205.228 206.79C205.243 207.004 205.214 207.218 205.142 207.42C205.071 207.622 204.959 207.807 204.813 207.964C204.666 208.12 204.49 208.245 204.293 208.331C204.097 208.416 203.885 208.46 203.671 208.46C203.456 208.46 203.244 208.416 203.048 208.331C202.852 208.245 202.675 208.12 202.529 207.964C202.383 207.807 202.27 207.622 202.199 207.42C202.127 207.218 202.098 207.004 202.113 206.79C202.098 206.576 202.127 206.362 202.199 206.16C202.27 205.958 202.383 205.773 202.529 205.616C202.675 205.46 202.852 205.335 203.048 205.249C203.244 205.164 203.456 205.12 203.671 205.12C203.885 205.12 204.097 205.164 204.293 205.249C204.49 205.335 204.666 205.46 204.813 205.616C204.959 205.773 205.071 205.958 205.142 206.16C205.214 206.362 205.243 206.576 205.228 206.79Z" fill="#1EC28B"/>
<path d="M210.057 206.813C210.036 207.117 209.927 207.408 209.743 207.65C209.559 207.893 209.308 208.076 209.021 208.178C208.734 208.28 208.424 208.296 208.128 208.224C207.832 208.151 207.564 207.994 207.357 207.771C207.149 207.548 207.011 207.27 206.96 206.97C206.909 206.67 206.946 206.361 207.068 206.082C207.19 205.803 207.39 205.566 207.645 205.399C207.9 205.233 208.198 205.144 208.503 205.145C208.93 205.161 209.333 205.345 209.624 205.658C209.916 205.971 210.071 206.386 210.057 206.813Z" fill="#1EC28B"/>
<path d="M214.885 206.836C214.865 207.141 214.754 207.433 214.569 207.677C214.383 207.92 214.13 208.103 213.841 208.204C213.551 208.304 213.239 208.318 212.943 208.242C212.646 208.167 212.378 208.006 212.172 207.779C211.966 207.553 211.832 207.271 211.785 206.968C211.738 206.666 211.781 206.356 211.908 206.078C212.036 205.8 212.242 205.565 212.502 205.404C212.762 205.242 213.063 205.16 213.369 205.168C213.79 205.193 214.183 205.382 214.467 205.694C214.75 206.005 214.9 206.415 214.885 206.836Z" fill="#1EC28B"/>
<path d="M208.025 97.4108C208.552 97.1789 208.999 96.7973 209.31 96.3135C209.621 95.8296 209.784 95.2649 209.776 94.6896C209.796 94.3156 209.739 93.9415 209.61 93.5901C209.48 93.2388 209.28 92.9175 209.023 92.6458C208.765 92.3742 208.454 92.1578 208.11 92.01C207.766 91.8621 207.396 91.7859 207.021 91.7859C206.647 91.7859 206.276 91.8621 205.932 92.01C205.588 92.1578 205.277 92.3742 205.02 92.6458C204.762 92.9175 204.562 93.2388 204.432 93.5901C204.303 93.9415 204.246 94.3156 204.266 94.6896C204.254 95.2706 204.415 95.8421 204.728 96.3318C205.041 96.8216 205.492 97.2076 206.024 97.4411C201.78 98.0778 201.969 102.686 201.969 102.686L212.005 102.732C212.005 102.732 212.24 98.0399 208.025 97.4108Z" fill="#1EC28B"/>
<path d="M224.333 105.704L188.564 105.542L188.544 109.817L224.314 109.979L224.333 105.704Z" fill="#1EC28B"/>
<path opacity="0.2" d="M224.333 105.704L188.564 105.542L188.544 109.817L224.314 109.979L224.333 105.704Z" fill="#1EC28B"/>
<path d="M129.732 339.842V333.361L118.111 333.277L118.013 343.078L118.733 343.131C121.939 343.336 135.045 343.639 137.198 342.972C139.593 342.229 129.732 339.842 129.732 339.842Z" fill="#1EC28B"/>
<path d="M137.471 342.366C137.471 342.472 133.12 342.563 127.761 342.563C122.402 342.563 118.051 342.472 118.051 342.366C118.051 342.26 122.402 342.169 127.761 342.169C133.12 342.169 137.471 342.26 137.471 342.366Z" fill="#263238"/>
<path d="M129.936 341.168C129.838 341.115 129.936 340.774 130.171 340.41C130.406 340.046 130.725 339.895 130.801 339.971C130.876 340.046 130.717 340.335 130.49 340.645C130.262 340.956 130.035 341.221 129.936 341.168Z" fill="#263238"/>
<path d="M130.679 341.593C130.573 341.593 130.626 341.168 130.854 340.766C131.081 340.365 131.384 340.122 131.468 340.183C131.551 340.243 131.414 340.585 131.202 340.941C130.99 341.297 130.778 341.631 130.679 341.593Z" fill="#263238"/>
<path d="M121.553 342.336C121.507 342.336 121.333 342.199 121.083 341.911C120.778 341.541 120.437 341.201 120.067 340.895C119.703 340.604 119.269 340.414 118.809 340.342C118.453 340.297 118.225 340.342 118.203 340.297C118.18 340.251 118.4 340.092 118.817 340.062C119.367 340.05 119.903 340.232 120.333 340.577C120.735 340.905 121.074 341.303 121.333 341.752C121.507 342.085 121.598 342.305 121.553 342.336Z" fill="#263238"/>
<path d="M129.974 339.948C130.027 340.039 129.83 340.266 129.497 340.387C129.163 340.509 128.868 340.463 128.853 340.387C128.837 340.312 129.072 340.152 129.36 340.046C129.648 339.94 129.914 339.857 129.974 339.948Z" fill="#263238"/>
<path d="M129.792 339.319C129.792 339.432 129.489 339.523 129.095 339.531C128.701 339.538 128.39 339.447 128.398 339.341C128.405 339.235 128.716 339.137 129.095 339.129C129.474 339.122 129.777 339.212 129.792 339.319Z" fill="#263238"/>
<path d="M158.346 339.842V333.361L146.726 333.277L146.627 342.98L147.348 343.033C150.554 343.237 163.667 343.639 165.812 342.972C168.208 342.229 158.346 339.842 158.346 339.842Z" fill="#1EC28B"/>
<path d="M166.085 342.381C166.085 342.487 161.742 342.578 156.375 342.578C151.009 342.578 146.673 342.487 146.673 342.381C146.673 342.275 151.016 342.184 156.375 342.184C161.735 342.184 166.085 342.275 166.085 342.381Z" fill="#263238"/>
<path d="M158.551 341.168C158.46 341.115 158.551 340.774 158.786 340.41C159.021 340.046 159.339 339.895 159.415 339.971C159.491 340.046 159.332 340.335 159.104 340.645C158.877 340.956 158.649 341.221 158.551 341.168Z" fill="#263238"/>
<path d="M159.294 341.593C159.195 341.593 159.241 341.168 159.476 340.766C159.711 340.365 160.006 340.122 160.09 340.183C160.173 340.243 160.029 340.585 159.817 340.941C159.605 341.297 159.4 341.631 159.294 341.593Z" fill="#263238"/>
<path d="M150.167 342.336C150.122 342.336 149.955 342.199 149.697 341.911C149.392 341.541 149.052 341.201 148.682 340.895C148.318 340.604 147.884 340.414 147.423 340.342C147.075 340.297 146.84 340.342 146.817 340.297C146.794 340.251 147.014 340.092 147.431 340.062C147.981 340.05 148.518 340.232 148.947 340.577C149.351 340.903 149.691 341.301 149.948 341.752C150.122 342.085 150.213 342.305 150.167 342.336Z" fill="#263238"/>
<path d="M158.589 339.948C158.642 340.039 158.445 340.266 158.111 340.387C157.778 340.509 157.482 340.463 157.467 340.387C157.452 340.312 157.687 340.152 157.975 340.046C158.263 339.94 158.528 339.857 158.589 339.948Z" fill="#263238"/>
<path d="M158.422 339.319C158.422 339.432 158.119 339.523 157.725 339.531C157.33 339.538 157.027 339.447 157.035 339.341C157.042 339.235 157.346 339.137 157.725 339.129C158.104 339.122 158.422 339.212 158.422 339.319Z" fill="#263238"/>
<path d="M201.158 147.386C200.855 147.075 200.104 147.226 200.104 147.226C200.18 146.79 200.18 146.344 200.104 145.907C199.968 145.483 199.013 145.566 199.013 145.566C198.969 145.209 198.969 144.847 199.013 144.49C199.021 144.411 199.004 144.331 198.964 144.262C198.925 144.193 198.865 144.137 198.793 144.103C198.341 143.919 197.856 143.831 197.368 143.846C196.784 143.429 199.149 140.116 200.029 139.055C200.908 137.994 200.749 137.168 199.968 137.168C199.43 137.168 196.671 140.351 195.822 141.42C194.973 142.489 192.722 145.46 192.646 143.088C192.57 140.715 191.615 138.926 191.016 138.623C190.417 138.32 189.78 139.032 190.106 139.692C190.393 140.441 190.571 141.227 190.637 142.026C190.719 142.663 190.691 143.309 190.554 143.937C190.302 145.104 189.96 146.249 189.53 147.363H189.47C189.47 147.363 172.93 163.228 171.732 164.357C170.664 165.373 149.167 163.152 144.854 162.697C143.388 162.483 141.908 162.381 140.427 162.394C138.555 162.477 138.221 162.743 136.357 162.765C131.648 162.818 126.949 163.231 122.303 164.001C120.2 164.359 118.235 165.287 116.622 166.685C115.01 168.084 113.813 169.898 113.162 171.93C108.818 185.498 98.9797 217.614 97.2438 235.655C95.9322 238.033 94.748 240.48 93.6964 242.985C92.476 246.305 92.7716 246.418 93.181 246.494C94.2876 246.699 95.5459 240.741 96.0159 242.181C96.4858 243.621 93.6282 249.284 94.7879 249.45C96.3039 249.662 97.5091 243.386 97.6532 242.886C97.7972 242.386 98.5476 242.545 98.4112 243.015C98.1913 243.682 96.0614 250.754 97.547 250.981C98.3657 251.103 98.4566 249.609 98.4566 249.609C98.4566 249.609 99.9726 242.84 100.662 242.977C101.352 243.113 100.617 247.108 100.268 248.442C99.9196 249.776 100.405 250.451 101.117 250.125C101.602 249.897 102.762 245.842 103.08 244.523C103.399 243.204 104.195 239.551 105.263 241.666C106.332 243.78 107.954 245.008 108.621 245.039C108.772 245.021 108.913 244.959 109.028 244.861C109.143 244.762 109.226 244.632 109.266 244.486C109.306 244.34 109.301 244.185 109.252 244.042C109.204 243.899 109.113 243.773 108.993 243.682C108.419 243.122 107.927 242.484 107.53 241.787C107.176 241.244 106.92 240.644 106.772 240.013C106.466 238.756 106.289 237.471 106.241 236.178L106.12 235.42C107.818 227.013 112.707 202.341 119.764 186.582L122.66 192.54L123.918 196.951L116.201 216L149.114 215.568L144.202 196.663L150.167 176.955C156.618 177.099 173.18 177.342 175.939 176.091C179.411 174.575 197.368 151.896 197.368 151.896C198.539 150.986 199.66 150.014 200.726 148.985C200.726 148.985 201.818 148.068 201.158 147.386Z" fill="#FFBE9D"/>
<path d="M114.754 201.923C115.709 198.664 120.613 182.549 120.613 182.549C120.613 182.549 123.023 195.685 122.387 197.269C121.801 198.626 121.109 199.933 120.317 201.181C114.754 209.647 115.481 213.885 115.481 213.885L149.099 212.861C149.174 208.162 146.392 197.231 145.816 195.488C145.24 193.745 147.158 188.037 147.158 188.037C147.158 188.037 150.948 184.179 150.812 182.193C150.74 180.409 150.519 178.634 150.152 176.887L170.618 177.645L169.974 163.773L140.579 160.832C139.555 163.72 130.3 162.303 130.3 162.303C120.31 162.636 119.688 164.471 115.534 167.7C111.38 170.929 104.505 198.641 104.505 198.641L114.754 201.923Z" fill="#1EC28B"/>
<path d="M134.629 198.641C134.046 198.746 133.453 198.776 132.862 198.732C131.763 198.732 130.255 198.657 128.595 198.49C126.935 198.323 125.434 198.088 124.365 197.876C123.776 197.8 123.198 197.652 122.645 197.436C123.237 197.437 123.828 197.492 124.411 197.603C125.487 197.739 126.98 197.929 128.633 198.096C130.285 198.262 131.786 198.376 132.87 198.452C133.461 198.459 134.05 198.523 134.629 198.641Z" fill="#263238"/>
<path d="M136.933 195.784C136.35 196.069 135.734 196.281 135.098 196.413C132.074 197.207 128.954 197.577 125.828 197.512C125.181 197.533 124.534 197.472 123.903 197.33C124.541 197.249 125.185 197.216 125.828 197.231C127.018 197.194 128.655 197.11 130.459 196.898C132.263 196.686 133.87 196.383 135.007 196.14C135.639 195.971 136.283 195.852 136.933 195.784Z" fill="#263238"/>
<path d="M148.242 183.034C148.227 183.612 148.148 184.187 148.007 184.747C147.81 185.801 147.507 187.241 147.12 188.818C146.734 190.394 146.362 191.85 146.029 192.835C145.895 193.399 145.696 193.946 145.438 194.465C145.48 193.889 145.587 193.319 145.756 192.767C146.044 191.584 146.37 190.22 146.734 188.727C147.098 187.233 147.446 185.869 147.734 184.687C147.837 184.117 148.007 183.563 148.242 183.034Z" fill="#263238"/>
<path d="M115.11 199.991C113.356 199.72 111.626 199.317 109.933 198.785C108.203 198.381 106.505 197.849 104.854 197.194C106.607 197.469 108.337 197.872 110.031 198.399C111.762 198.802 113.459 199.334 115.11 199.991Z" fill="#263238"/>
<path d="M150.516 176.72C150.23 176.769 149.938 176.769 149.652 176.72C148.86 176.639 148.083 176.453 147.34 176.167C146.1 175.701 144.971 174.981 144.026 174.052C143.081 173.124 142.341 172.009 141.852 170.777C141.312 169.423 141.082 167.965 141.178 166.51C141.211 165.31 141.57 164.141 142.216 163.129C142.67 162.447 143.349 161.946 144.134 161.712C144.344 161.654 144.56 161.626 144.778 161.628C144.93 161.628 145.005 161.628 145.005 161.628C145.005 161.628 144.687 161.628 144.179 161.833C143.459 162.099 142.848 162.598 142.443 163.25C141.413 164.873 141.125 167.836 142.224 170.603C142.735 171.908 143.536 173.079 144.566 174.029C145.41 174.807 146.382 175.432 147.439 175.879C148.431 176.271 149.463 176.553 150.516 176.72Z" fill="#263238"/>
<path d="M168.185 177.372C167.995 175.048 167.935 172.714 168.003 170.383C167.944 168.054 168.015 165.723 168.215 163.402C168.405 165.724 168.466 168.055 168.397 170.383C168.461 172.715 168.39 175.048 168.185 177.372Z" fill="#263238"/>
<path d="M140.382 161.681C140.465 159.991 140.639 158.081 140.639 158.081C140.639 158.081 144.823 157.619 145.074 153.298C145.324 148.977 145.074 139.01 145.074 139.01L137.494 135.129L129.08 141.746L130.376 163.349L138.092 163.842C138.682 163.858 139.255 163.64 139.684 163.235C140.113 162.83 140.364 162.271 140.382 161.681Z" fill="#FFBE9D"/>
<path d="M141.132 149.879C141.132 149.879 141.132 149.963 141.064 150.061C141.007 150.133 140.935 150.189 140.851 150.226C140.768 150.263 140.677 150.28 140.586 150.273C140.101 150.273 139.631 149.713 139.464 149.061C139.385 148.745 139.385 148.414 139.464 148.098C139.48 147.96 139.53 147.828 139.609 147.714C139.689 147.601 139.795 147.508 139.919 147.446C140.021 147.404 140.136 147.404 140.238 147.446C140.313 147.484 140.374 147.545 140.412 147.62C140.465 147.749 140.412 147.833 140.412 147.825C140.412 147.818 140.412 147.749 140.336 147.674C140.297 147.619 140.238 147.581 140.173 147.567C140.107 147.554 140.038 147.564 139.98 147.598C139.887 147.654 139.81 147.733 139.755 147.827C139.701 147.921 139.671 148.027 139.669 148.136C139.605 148.418 139.605 148.711 139.669 148.992C139.821 149.584 140.23 150.061 140.594 150.107C140.665 150.116 140.737 150.111 140.807 150.092C140.876 150.072 140.94 150.039 140.996 149.993C141.087 149.932 141.117 149.872 141.132 149.879Z" fill="#EB996E"/>
<path d="M147.674 136.675C147.09 134.689 144.975 133.704 143.05 133.158C140.116 132.324 136.948 131.96 134.083 133.014C131.217 134.067 127.776 135.917 127.776 139.078C126.086 138.941 125.115 140.419 124.448 142.254C124.022 143.371 123.766 144.547 123.69 145.741C123.478 149.879 122.318 155.595 119.635 158.627C118.119 160.317 116.019 161.484 115.155 163.592C114.397 165.418 114.791 167.586 114.087 169.436C113.457 171.065 112.07 172.225 111.055 173.643C110.02 175.251 109.411 177.095 109.285 179.003C109.159 180.911 109.52 182.82 110.334 184.55C111.155 186.236 112.31 187.737 113.729 188.962C115.148 190.187 116.802 191.11 118.589 191.675C122.13 192.753 125.905 192.789 129.466 191.782C132.139 191.142 134.632 189.906 136.758 188.166C138.934 186.389 140.428 183.915 140.988 181.162C141.526 178.069 140.662 174.924 140.018 171.846C138.001 162.121 138.577 161.613 141.124 152.585C141.185 152.426 141.215 152.259 141.261 152.1C141.306 151.941 141.329 151.865 141.359 151.744C141.432 151.387 141.47 151.024 141.473 150.66C141.101 150.798 140.697 150.828 140.309 150.744C139.921 150.661 139.565 150.469 139.282 150.19C138.999 149.893 138.802 149.525 138.711 149.124C138.62 148.724 138.64 148.306 138.767 147.916C138.946 147.489 139.212 147.105 139.549 146.787C139.886 146.47 140.286 146.227 140.723 146.074C141.564 145.725 142.466 145.544 143.292 145.157C145.043 144.323 146.256 142.595 147.082 140.783C147.762 139.528 147.971 138.071 147.674 136.675Z" fill="#263238"/>
<path d="M141.435 150.084C141.595 150.321 141.728 150.575 141.829 150.842C142.057 151.32 142.36 151.994 142.693 152.775L142.754 152.919H142.595L141.837 152.987C141.314 152.987 140.874 153.086 140.359 153.078C140.314 153.068 140.272 153.047 140.238 153.016C140.203 152.986 140.177 152.947 140.162 152.904C140.139 152.835 140.139 152.76 140.162 152.692C140.179 152.589 140.202 152.488 140.23 152.388L140.366 151.85C140.435 151.491 140.542 151.14 140.685 150.804C140.671 151.17 140.617 151.533 140.526 151.888L140.419 152.426C140.382 152.608 140.313 152.889 140.419 152.866C140.798 152.866 141.337 152.782 141.837 152.752L142.595 152.684L142.496 152.851C142.17 152.093 141.898 151.38 141.738 150.887C141.599 150.636 141.497 150.365 141.435 150.084Z" fill="#1EC28B"/>
<path d="M115.481 213.885L149.099 212.862L163.728 269.969L161.037 335.476H143.262L145.438 271.364L132.438 231.607L134.439 338.015L116.474 338.28L114.587 238.262C114.504 235.48 113.594 229.212 113.935 226.453L115.481 213.885Z" fill="#263238"/>
<path d="M136.91 232.418C136.36 232.453 135.807 232.419 135.265 232.319C134.249 232.198 132.862 231.986 131.339 231.683C129.815 231.379 128.451 231.031 127.465 230.75C126.938 230.635 126.429 230.451 125.949 230.205C125.949 230.091 128.42 230.682 131.452 231.296C134.484 231.91 136.925 232.304 136.91 232.418Z" fill="#455A64"/>
<path d="M160.855 331.883C160.855 331.989 156.83 332.08 151.865 332.08C146.9 332.08 142.868 331.989 142.868 331.883C142.868 331.777 146.893 331.686 151.865 331.686C156.838 331.686 160.855 331.769 160.855 331.883Z" fill="#455A64"/>
<path d="M134.28 335.248C134.28 335.362 130.368 335.445 125.548 335.445C120.727 335.445 116.823 335.362 116.823 335.248C116.823 335.134 120.734 335.051 125.548 335.051C130.361 335.051 134.28 335.142 134.28 335.248Z" fill="#455A64"/>
<path d="M131.96 334.975C131.854 334.975 131.384 311.728 130.907 283.052C130.429 254.377 130.149 231.114 130.247 231.114C130.346 231.114 130.831 254.355 131.301 283.045C131.771 311.735 132.074 334.975 131.96 334.975Z" fill="#455A64"/>
<path d="M158.468 331.883C158.459 331.779 158.459 331.675 158.468 331.572V330.662C158.468 329.844 158.528 328.669 158.574 327.175C158.68 324.143 158.831 319.739 159.021 314.343C159.43 303.488 160.006 288.525 160.635 272.008C160.635 271.849 160.635 271.697 160.635 271.561V271.614C156.656 255.696 153.055 241.249 150.44 230.796L147.408 218.433C147.06 216.985 146.794 215.856 146.605 215.067C146.514 214.696 146.453 214.408 146.4 214.188C146.371 214.089 146.353 213.988 146.347 213.885C146.387 213.98 146.417 214.079 146.438 214.18C146.499 214.393 146.575 214.681 146.681 215.045C146.885 215.803 147.181 216.955 147.56 218.395C148.318 221.321 149.387 225.535 150.721 230.728C153.359 241.173 156.997 255.582 161.03 271.523V271.576C161.03 271.713 161.03 271.872 161.03 272.023C160.355 288.54 159.741 303.496 159.294 314.35C159.059 319.755 158.862 324.128 158.725 327.175C158.649 328.691 158.589 329.844 158.551 330.662C158.551 331.049 158.505 331.352 158.498 331.572C158.499 331.676 158.489 331.78 158.468 331.883Z" fill="#455A64"/>
<path d="M152.669 270.227C151.392 270.647 150.077 270.939 148.742 271.099C147.105 271.379 145.71 271.576 145.081 271.607V271.455C145.286 271.516 145.392 271.554 145.392 271.584C145.392 271.614 145.263 271.584 145.051 271.584H144.596L145.051 271.447C145.642 271.273 147.037 270.985 148.674 270.689C149.987 270.405 151.325 270.25 152.669 270.227Z" fill="#455A64"/>
<path d="M152.358 272.402C151.176 272.456 149.991 272.403 148.818 272.243C147.634 272.219 146.455 272.09 145.293 271.857C147.662 271.663 150.047 271.847 152.358 272.402Z" fill="#455A64"/>
<path opacity="0.2" d="M115.337 215.09C115.736 215.601 116.237 216.023 116.809 216.327C117.381 216.632 118.011 216.812 118.657 216.856C120.011 217.017 121.381 216.991 122.728 216.78C131.407 215.818 140.602 214.931 149.099 212.862C138.1 213.476 126.48 213.271 115.481 213.885L115.368 214.825" fill="black"/>
<g opacity="0.2">
<path opacity="0.2" d="M126.669 230.591L132.87 254.65L132.438 231.607L126.669 230.591Z" fill="black"/>
</g>
</svg>
